<?xml version="1.0" encoding="UTF-8"?>
<svg xmlns="http://www.w3.org/2000/svg" xmlns:xlink="http://www.w3.org/1999/xlink" viewBox="0 0 3000 1500">
  <defs>
    <style>
      .cls-1 {
        fill: url(#linear-gradient-7);
      }

      .cls-1, .cls-2 {
        fill-rule: evenodd;
      }

      .cls-2 {
        fill: url(#linear-gradient-8);
      }

      .cls-3 {
        fill: url(#linear-gradient-5);
      }

      .cls-4 {
        fill: url(#linear-gradient-6);
      }

      .cls-5 {
        fill: url(#linear-gradient-9);
      }

      .cls-6 {
        fill: url(#linear-gradient-4);
      }

      .cls-7 {
        fill: url(#linear-gradient-3);
      }

      .cls-8 {
        fill: url(#linear-gradient-2);
      }

      .cls-9 {
        isolation: isolate;
      }

      .cls-10 {
        fill: #ed1c24;
      }

      .cls-11 {
        fill: #8dc63f;
      }

      .cls-12 {
        fill: #f7941e;
      }

      .cls-13 {
        fill: url(#linear-gradient-43);
      }

      .cls-14 {
        fill: url(#linear-gradient-40);
      }

      .cls-15 {
        fill: url(#linear-gradient-41);
      }

      .cls-16 {
        fill: url(#linear-gradient-42);
      }

      .cls-17 {
        fill: url(#linear-gradient-45);
      }

      .cls-18 {
        fill: url(#linear-gradient-44);
      }

      .cls-19 {
        fill: url(#linear-gradient-10);
      }

      .cls-20 {
        fill: url(#linear-gradient-11);
      }

      .cls-21 {
        fill: url(#linear-gradient-12);
      }

      .cls-22 {
        fill: url(#linear-gradient-13);
      }

      .cls-23 {
        fill: url(#linear-gradient-19);
      }

      .cls-24 {
        fill: url(#linear-gradient-14);
      }

      .cls-25 {
        fill: url(#linear-gradient-21);
      }

      .cls-26 {
        fill: url(#linear-gradient-20);
      }

      .cls-27 {
        fill: url(#linear-gradient-22);
      }

      .cls-28 {
        fill: url(#linear-gradient-23);
      }

      .cls-29 {
        fill: url(#linear-gradient-28);
      }

      .cls-30 {
        fill: url(#linear-gradient-25);
      }

      .cls-31 {
        fill: url(#linear-gradient-32);
      }

      .cls-32 {
        fill: url(#linear-gradient-31);
      }

      .cls-33 {
        fill: url(#linear-gradient-33);
      }

      .cls-34 {
        fill: url(#linear-gradient-30);
      }

      .cls-35 {
        fill: url(#linear-gradient-15);
      }

      .cls-36 {
        fill: url(#linear-gradient-16);
      }

      .cls-37 {
        fill: url(#linear-gradient-17);
      }

      .cls-38 {
        fill: url(#linear-gradient-18);
      }

      .cls-39 {
        fill: url(#linear-gradient-35);
      }

      .cls-40 {
        fill: url(#linear-gradient-34);
      }

      .cls-41 {
        fill: url(#linear-gradient-36);
      }

      .cls-42 {
        fill: url(#linear-gradient-38);
      }

      .cls-43 {
        fill: url(#linear-gradient-27);
      }

      .cls-44 {
        fill: url(#linear-gradient-24);
      }

      .cls-45 {
        fill: url(#linear-gradient-26);
      }

      .cls-46 {
        fill: url(#linear-gradient-29);
      }

      .cls-47 {
        fill: url(#linear-gradient-37);
      }

      .cls-48 {
        fill: url(#linear-gradient-39);
      }

      .cls-49 {
        mix-blend-mode: screen;
      }

      .cls-50 {
        fill: url(#linear-gradient);
        mix-blend-mode: multiply;
      }

      .cls-51 {
        fill: #27aae1;
      }

      .cls-52 {
        fill: #ee2a7b;
      }

      .cls-53 {
        fill: #fff200;
      }

      .cls-54 {
        fill: #92278f;
      }
    </style>
    <linearGradient id="linear-gradient" x1="1500" y1="1500" x2="1500" y2="0" gradientUnits="userSpaceOnUse">
      <stop offset="0" stop-color="#414042"/>
      <stop offset=".16" stop-color="#000"/>
      <stop offset=".64" stop-color="#fff"/>
      <stop offset="1" stop-color="#fff"/>
    </linearGradient>
    <linearGradient id="linear-gradient-2" x1="110.44" y1="841.1" x2="2739.16" y2="841.1" gradientUnits="userSpaceOnUse">
      <stop offset="0" stop-color="#000"/>
      <stop offset=".03" stop-color="#000203"/>
      <stop offset=".06" stop-color="#000a0e"/>
      <stop offset=".08" stop-color="#001820"/>
      <stop offset=".1" stop-color="#002b39"/>
      <stop offset=".12" stop-color="#00445a"/>
      <stop offset=".15" stop-color="#006383"/>
      <stop offset=".17" stop-color="#0086b2"/>
      <stop offset=".18" stop-color="#00a8de"/>
      <stop offset=".25" stop-color="#333391"/>
      <stop offset=".37" stop-color="#e91388"/>
      <stop offset=".48" stop-color="#eb2d2e"/>
      <stop offset=".53" stop-color="#f27b2c"/>
      <stop offset=".6" stop-color="#fde92b"/>
      <stop offset=".61" stop-color="#f7e92f"/>
      <stop offset=".63" stop-color="#e9ea3c"/>
      <stop offset=".65" stop-color="#d0ed51"/>
      <stop offset=".67" stop-color="#aef06e"/>
      <stop offset=".69" stop-color="#81f594"/>
      <stop offset=".71" stop-color="#4cfac2"/>
      <stop offset=".73" stop-color="#1fffea"/>
      <stop offset=".83" stop-color="#009e54"/>
      <stop offset=".83" stop-color="#009d53"/>
      <stop offset=".85" stop-color="#00733d"/>
      <stop offset=".87" stop-color="#00502a"/>
      <stop offset=".89" stop-color="#00331b"/>
      <stop offset=".91" stop-color="#001c0f"/>
      <stop offset=".93" stop-color="#000c06"/>
      <stop offset=".96" stop-color="#000201"/>
      <stop offset=".99" stop-color="#000"/>
    </linearGradient>
    <linearGradient id="linear-gradient-3" x1="111.02" y1="848.09" x2="2739.75" y2="848.09" xlink:href="#linear-gradient-2"/>
    <linearGradient id="linear-gradient-4" x1="111.02" y1="854.17" x2="2739.76" y2="854.17" xlink:href="#linear-gradient-2"/>
    <linearGradient id="linear-gradient-5" x1="111.02" y1="860.64" x2="2739.75" y2="860.64" xlink:href="#linear-gradient-2"/>
    <linearGradient id="linear-gradient-6" x1="111.02" y1="869.3" x2="2740.91" y2="869.3" xlink:href="#linear-gradient-2"/>
    <linearGradient id="linear-gradient-7" x1="111.02" y1="609.92" x2="2739.74" y2="609.92" xlink:href="#linear-gradient-2"/>
    <linearGradient id="linear-gradient-8" x1="111.02" y1="601.03" x2="2739.76" y2="601.03" xlink:href="#linear-gradient-2"/>
    <linearGradient id="linear-gradient-9" x1="111.01" y1="905.1" x2="2739.77" y2="905.1" xlink:href="#linear-gradient-2"/>
    <linearGradient id="linear-gradient-10" x1="111.01" y1="1206.04" x2="2739.76" y2="1206.04" xlink:href="#linear-gradient-2"/>
    <linearGradient id="linear-gradient-11" x1="111.02" y1="673.05" x2="2739.79" y2="673.05" xlink:href="#linear-gradient-2"/>
    <linearGradient id="linear-gradient-12" x1="111.01" y1="823.7" x2="2739.77" y2="823.7" xlink:href="#linear-gradient-2"/>
    <linearGradient id="linear-gradient-13" x1="111.02" y1="872.1" x2="2739.76" y2="872.1" xlink:href="#linear-gradient-2"/>
    <linearGradient id="linear-gradient-14" x1="111.02" y1="764.32" x2="2739.76" y2="764.32" xlink:href="#linear-gradient-2"/>
    <linearGradient id="linear-gradient-15" x1="111.06" y1="577.51" x2="2739.74" y2="577.51" xlink:href="#linear-gradient-2"/>
    <linearGradient id="linear-gradient-16" x1="111.01" y1="614.17" x2="2739.75" y2="614.17" xlink:href="#linear-gradient-2"/>
    <linearGradient id="linear-gradient-17" x1="111" y1="993.78" x2="2739.77" y2="993.78" xlink:href="#linear-gradient-2"/>
    <linearGradient id="linear-gradient-18" x1="111.01" y1="1073.59" x2="2739.78" y2="1073.59" xlink:href="#linear-gradient-2"/>
    <linearGradient id="linear-gradient-19" x1="111.01" y1="1149.38" x2="2739.76" y2="1149.38" xlink:href="#linear-gradient-2"/>
    <linearGradient id="linear-gradient-20" x1="111.01" y1="1141.6" x2="2739.77" y2="1141.6" xlink:href="#linear-gradient-2"/>
    <linearGradient id="linear-gradient-21" x1="111.05" y1="970.03" x2="2739.73" y2="970.03" xlink:href="#linear-gradient-2"/>
    <linearGradient id="linear-gradient-22" x1="111.04" y1="888.56" x2="2739.75" y2="888.56" xlink:href="#linear-gradient-2"/>
    <linearGradient id="linear-gradient-23" x1="111.03" y1="1004.92" x2="2739.75" y2="1004.92" xlink:href="#linear-gradient-2"/>
    <linearGradient id="linear-gradient-24" x1="111.03" y1="656.94" x2="2739.76" y2="656.94" xlink:href="#linear-gradient-2"/>
    <linearGradient id="linear-gradient-25" x1="111.03" y1="732" x2="2739.74" y2="732" xlink:href="#linear-gradient-2"/>
    <linearGradient id="linear-gradient-26" x1="110.98" y1="710.54" x2="2739.75" y2="710.54" xlink:href="#linear-gradient-2"/>
    <linearGradient id="linear-gradient-27" x1="111.03" y1="702.56" x2="2739.75" y2="702.56" xlink:href="#linear-gradient-2"/>
    <linearGradient id="linear-gradient-28" x1="111.03" y1="613.99" x2="2739.76" y2="613.99" xlink:href="#linear-gradient-2"/>
    <linearGradient id="linear-gradient-29" x1="111.01" y1="665.48" x2="2739.76" y2="665.48" xlink:href="#linear-gradient-2"/>
    <linearGradient id="linear-gradient-30" x1="110.98" y1="699.69" x2="2739.76" y2="699.69" xlink:href="#linear-gradient-2"/>
    <linearGradient id="linear-gradient-31" x1="111.02" y1="641.36" x2="2739.77" y2="641.36" xlink:href="#linear-gradient-2"/>
    <linearGradient id="linear-gradient-32" x1="111.02" y1="706.67" x2="2739.77" y2="706.67" xlink:href="#linear-gradient-2"/>
    <linearGradient id="linear-gradient-33" x1="111.03" y1="649.53" x2="2739.74" y2="649.53" xlink:href="#linear-gradient-2"/>
    <linearGradient id="linear-gradient-34" x1="111.03" y1="678.88" x2="2739.72" y2="678.88" xlink:href="#linear-gradient-2"/>
    <linearGradient id="linear-gradient-35" x1="111.02" y1="619.42" x2="2739.76" y2="619.42" xlink:href="#linear-gradient-2"/>
    <linearGradient id="linear-gradient-36" x1="111.03" y1="649.26" x2="2739.74" y2="649.26" xlink:href="#linear-gradient-2"/>
    <linearGradient id="linear-gradient-37" x1="111.02" y1="991" x2="2739.75" y2="991" xlink:href="#linear-gradient-2"/>
    <linearGradient id="linear-gradient-38" x1="111" y1="1039.63" x2="2739.77" y2="1039.63" xlink:href="#linear-gradient-2"/>
    <linearGradient id="linear-gradient-39" x1="111.04" y1="971.34" x2="2739.75" y2="971.34" xlink:href="#linear-gradient-2"/>
    <linearGradient id="linear-gradient-40" x1="111.05" y1="978.9" x2="2739.74" y2="978.9" xlink:href="#linear-gradient-2"/>
    <linearGradient id="linear-gradient-41" x1="111.03" y1="911.44" x2="2739.76" y2="911.44" xlink:href="#linear-gradient-2"/>
    <linearGradient id="linear-gradient-42" x1="111.04" y1="931.55" x2="2739.75" y2="931.55" xlink:href="#linear-gradient-2"/>
    <linearGradient id="linear-gradient-43" x1="111.12" y1="1096.56" x2="2739.65" y2="1096.56" xlink:href="#linear-gradient-2"/>
    <linearGradient id="linear-gradient-44" x1="111.03" y1="606.1" x2="2739.75" y2="606.1" xlink:href="#linear-gradient-2"/>
    <linearGradient id="linear-gradient-45" x1="111.02" y1="637.64" x2="2739.76" y2="637.64" xlink:href="#linear-gradient-2"/>
  </defs>
  <g class="cls-9">
    <g id="BACKGROUND">
      <rect width="3000" height="1500"/>
    </g>
    <g id="OBJECTS">
      <g>
        <g>
          <path class="cls-10" d="M75.11,1260.02v-544.14c0-14.9-30.93-14.9-30.93,0v544.14h30.93Z"/>
          <path class="cls-11" d="M130.51,1260.02v-561.05c0-14.9-30.93-14.9-30.93,0v561.05h30.93Z"/>
          <path class="cls-52" d="M185.9,1260.02v-556.85c0-14.9-30.93-14.9-30.93,0v556.85h30.93Z"/>
          <path class="cls-53" d="M241.3,1260.02v-618.23c0-14.9-30.94-14.9-30.94,0v618.23h30.94Z"/>
          <path class="cls-12" d="M296.7,1260.02v-689.54c0-14.9-30.94-14.9-30.94,0v689.54h30.94Z"/>
          <path class="cls-11" d="M352.1,1260.02v-553.79c0-14.9-30.94-14.9-30.94,0v553.79h30.94Z"/>
          <path class="cls-12" d="M407.49,1260.02V418.89c0-14.9-30.93-14.9-30.93,0v841.12h30.93Z"/>
          <path class="cls-53" d="M462.89,1260.02V389.56c0-14.9-30.93-14.9-30.93,0v870.46h30.93Z"/>
          <path class="cls-11" d="M518.29,1260.02V463.09c0-14.9-30.94-14.9-30.94,0v796.93h30.94Z"/>
          <path class="cls-11" d="M573.69,1260.02v-469.81c0-14.9-30.94-14.9-30.94,0v469.81h30.94Z"/>
          <path class="cls-51" d="M629.08,1260.02v-655.38c0-14.9-30.93-14.9-30.93,0v655.38h30.93Z"/>
          <path class="cls-51" d="M684.48,1260.02v-404.11c0-14.9-30.93-14.9-30.93,0v404.11h30.93Z"/>
          <path class="cls-51" d="M739.88,1260.02v-638.12c0-14.9-30.93-14.9-30.93,0v638.12h30.93Z"/>
          <path class="cls-12" d="M795.27,1260.02V315.24c0-14.9-30.93-14.9-30.93,0v944.78h30.93Z"/>
          <path class="cls-52" d="M850.67,1260.02V487.35c0-14.9-30.93-14.9-30.93,0v772.67h30.93Z"/>
          <path class="cls-11" d="M906.07,1260.02v-668.76c0-14.9-30.94-14.9-30.94,0v668.76h30.94Z"/>
          <path class="cls-11" d="M961.47,1260.02V309.19c0-14.9-30.93-14.9-30.93,0v950.83h30.93Z"/>
          <path class="cls-11" d="M1016.86,1260.02V485.22c0-14.9-30.93-14.9-30.93,0v774.8h30.93Z"/>
          <path class="cls-51" d="M1072.26,1260.02v-515.9c0-14.9-30.93-14.9-30.93,0v515.9h30.93Z"/>
          <path class="cls-10" d="M1127.66,1260.02v-516.47c0-14.9-30.93-14.9-30.93,0v516.47h30.93Z"/>
          <path class="cls-12" d="M1183.06,1260.02v-338.89c0-14.9-30.93-14.9-30.93,0v338.89h30.93Z"/>
          <path class="cls-12" d="M1238.46,1260.02v-594.28c0-14.9-30.93-14.9-30.93,0v594.28h30.93Z"/>
          <path class="cls-11" d="M1293.86,1260.02V354.01c0-14.9-30.93-14.9-30.93,0v906.01h30.93Z"/>
          <path class="cls-12" d="M1349.26,1260.02v-667.64c0-14.9-30.93-14.9-30.93,0v667.64h30.93Z"/>
          <path class="cls-53" d="M1404.65,1260.02v-542.46c0-14.9-30.93-14.9-30.93,0v542.46h30.93Z"/>
          <path class="cls-12" d="M1460.05,1260.02v-524.95c0-14.9-30.93-14.9-30.93,0v524.95h30.93Z"/>
          <path class="cls-54" d="M1515.45,1260.02v-530.78c0-14.9-30.93-14.9-30.93,0v530.78h30.93Z"/>
          <path class="cls-53" d="M1570.85,1260.02v-427.1c0-14.9-30.93-14.9-30.93,0v427.1h30.93Z"/>
          <path class="cls-12" d="M1626.25,1260.02V359.21c0-14.9-30.93-14.9-30.93,0v900.81h30.93Z"/>
          <path class="cls-54" d="M1681.65,1260.02V402.04c0-14.9-30.93-14.9-30.93,0v857.98h30.93Z"/>
          <path class="cls-52" d="M1737.05,1260.02V317.24c0-14.9-30.93-14.9-30.93,0v942.78h30.93Z"/>
          <path class="cls-12" d="M1792.45,1260.02v-486.22c0-14.9-30.93-14.9-30.93,0v486.22h30.93Z"/>
          <path class="cls-51" d="M1847.85,1260.02v-556.77c0-14.9-30.94-14.9-30.94,0v556.77h30.94Z"/>
          <path class="cls-51" d="M1903.25,1260.02v-312.53c0-14.9-30.93-14.9-30.93,0v312.53h30.93Z"/>
          <path class="cls-53" d="M1958.64,1260.02v-731.57c0-14.9-30.94-14.9-30.94,0v731.57h30.94Z"/>
          <path class="cls-12" d="M2014.04,1260.02v-537.74c0-14.9-30.93-14.9-30.93,0v537.74h30.93Z"/>
          <path class="cls-54" d="M2069.44,1260.02V218.94c0-14.9-30.93-14.9-30.93,0v1041.07h30.93Z"/>
          <path class="cls-53" d="M2124.84,1260.02v-681.93c0-14.9-30.93-14.9-30.93,0v681.93h30.93Z"/>
          <path class="cls-11" d="M2180.24,1260.02V396.94c0-14.9-30.94-14.9-30.94,0v863.08h30.94Z"/>
          <path class="cls-11" d="M2235.64,1260.02V309.43c0-14.9-30.93-14.9-30.93,0v950.58h30.93Z"/>
          <path class="cls-53" d="M2291.04,1260.02V481.97c0-14.9-30.93-14.9-30.93,0v778.05h30.93Z"/>
          <path class="cls-12" d="M2346.43,1260.02v-566.97c0-14.9-30.93-14.9-30.93,0v566.97h30.93Z"/>
          <path class="cls-12" d="M2401.83,1260.02v-513.51c0-14.9-30.93-14.9-30.93,0v513.51h30.93Z"/>
          <path class="cls-51" d="M2457.24,1260.02v-455.18c0-14.9-30.93-14.9-30.93,0v455.18h30.93Z"/>
          <path class="cls-10" d="M2512.63,1260.02v-737.98c0-14.9-30.93-14.9-30.93,0v737.98h30.93Z"/>
          <path class="cls-53" d="M2568.03,1260.02V473.46c0-14.9-30.93-14.9-30.93,0v786.56h30.93Z"/>
          <path class="cls-54" d="M2623.43,1260.02V343.11c0-14.9-30.93-14.9-30.93,0v916.91h30.93Z"/>
          <path class="cls-11" d="M2678.83,1260.02V310.75c0-14.9-30.93-14.9-30.93,0v949.27h30.93Z"/>
          <path class="cls-54" d="M2734.23,1260.02V493.62c0-14.9-30.93-14.9-30.93,0v766.39h30.93Z"/>
          <path class="cls-11" d="M2789.63,1260.02v-719.54c0-14.9-30.93-14.9-30.93,0v719.54h30.93Z"/>
          <path class="cls-52" d="M2845.03,1260.02v-660.18c0-14.9-30.93-14.9-30.93,0v660.18h30.93Z"/>
          <path class="cls-54" d="M2900.42,1260.02v-495.52c0-14.9-30.93-14.9-30.93,0v495.52h30.93Z"/>
          <path class="cls-11" d="M2955.83,1260.02v-739.86c0-14.9-30.93-14.9-30.93,0v739.86h30.93Z"/>
        </g>
        <g>
          <rect class="cls-10" x="44.18" y="1196.8" width="30.93" height="303.2"/>
          <rect class="cls-11" x="99.57" y="1196.8" width="30.93" height="303.2"/>
          <rect class="cls-52" x="154.97" y="1196.8" width="30.93" height="303.2"/>
          <rect class="cls-53" x="210.37" y="1196.8" width="30.94" height="303.2"/>
          <rect class="cls-12" x="265.76" y="1196.8" width="30.94" height="303.2"/>
          <rect class="cls-11" x="321.16" y="1196.8" width="30.94" height="303.2"/>
          <rect class="cls-12" x="376.56" y="1196.8" width="30.93" height="303.2"/>
          <rect class="cls-53" x="431.96" y="1196.8" width="30.93" height="303.2"/>
          <rect class="cls-11" x="487.35" y="1196.8" width="30.94" height="303.2"/>
          <rect class="cls-11" x="542.75" y="1196.8" width="30.94" height="303.2"/>
          <rect class="cls-51" x="598.15" y="1196.8" width="30.93" height="303.2"/>
          <rect class="cls-51" x="653.55" y="1196.8" width="30.93" height="303.2"/>
          <rect class="cls-51" x="708.94" y="1196.8" width="30.93" height="303.2"/>
          <rect class="cls-12" x="764.34" y="1196.8" width="30.93" height="303.2"/>
          <rect class="cls-52" x="819.74" y="1196.8" width="30.93" height="303.2"/>
          <rect class="cls-11" x="875.13" y="1196.8" width="30.94" height="303.2"/>
          <rect class="cls-11" x="930.53" y="1196.8" width="30.93" height="303.2"/>
          <rect class="cls-11" x="985.93" y="1196.8" width="30.93" height="303.2"/>
          <rect class="cls-51" x="1041.33" y="1196.8" width="30.93" height="303.2"/>
          <rect class="cls-10" x="1096.73" y="1196.8" width="30.93" height="303.2"/>
          <rect class="cls-12" x="1152.13" y="1196.8" width="30.93" height="303.2"/>
          <rect class="cls-12" x="1207.53" y="1196.8" width="30.93" height="303.2"/>
          <rect class="cls-11" x="1262.92" y="1196.8" width="30.93" height="303.2"/>
          <rect class="cls-12" x="1318.32" y="1196.8" width="30.93" height="303.2"/>
          <rect class="cls-53" x="1373.72" y="1196.8" width="30.93" height="303.2"/>
          <rect class="cls-12" x="1429.12" y="1196.8" width="30.93" height="303.2"/>
          <rect class="cls-54" x="1484.52" y="1196.8" width="30.93" height="303.2"/>
          <rect class="cls-53" x="1539.92" y="1196.8" width="30.93" height="303.2"/>
          <rect class="cls-12" x="1595.32" y="1196.8" width="30.93" height="303.2"/>
          <rect class="cls-54" x="1650.72" y="1196.8" width="30.93" height="303.2"/>
          <rect class="cls-52" x="1706.12" y="1196.8" width="30.93" height="303.2"/>
          <rect class="cls-12" x="1761.51" y="1196.8" width="30.93" height="303.2"/>
          <rect class="cls-51" x="1816.91" y="1196.8" width="30.94" height="303.2"/>
          <rect class="cls-51" x="1872.31" y="1196.8" width="30.93" height="303.2"/>
          <rect class="cls-53" x="1927.71" y="1196.8" width="30.94" height="303.2"/>
          <rect class="cls-12" x="1983.11" y="1196.8" width="30.93" height="303.2"/>
          <rect class="cls-54" x="2038.51" y="1196.8" width="30.93" height="303.2"/>
          <rect class="cls-53" x="2093.91" y="1196.8" width="30.93" height="303.2"/>
          <rect class="cls-11" x="2149.3" y="1196.8" width="30.94" height="303.2"/>
          <rect class="cls-11" x="2204.71" y="1196.8" width="30.93" height="303.2"/>
          <rect class="cls-53" x="2260.11" y="1196.8" width="30.93" height="303.2"/>
          <rect class="cls-12" x="2315.5" y="1196.8" width="30.93" height="303.2"/>
          <rect class="cls-12" x="2370.9" y="1196.8" width="30.93" height="303.2"/>
          <rect class="cls-51" x="2426.3" y="1196.8" width="30.93" height="303.2"/>
          <rect class="cls-10" x="2481.7" y="1196.8" width="30.93" height="303.2"/>
          <rect class="cls-53" x="2537.1" y="1196.8" width="30.93" height="303.2"/>
          <rect class="cls-54" x="2592.5" y="1196.8" width="30.93" height="303.2"/>
          <rect class="cls-11" x="2647.9" y="1196.8" width="30.93" height="303.2"/>
          <rect class="cls-54" x="2703.29" y="1196.8" width="30.93" height="303.2"/>
          <rect class="cls-11" x="2758.69" y="1196.8" width="30.94" height="303.2"/>
          <rect class="cls-52" x="2814.1" y="1196.8" width="30.93" height="303.2"/>
          <rect class="cls-54" x="2869.49" y="1196.8" width="30.93" height="303.2"/>
          <rect class="cls-11" x="2924.89" y="1196.8" width="30.93" height="303.2"/>
        </g>
      </g>
      <rect class="cls-50" width="3000" height="1500"/>
      <g class="cls-49">
        <path class="cls-8" d="M110.44,724.18c1.14-1.43,2.25-2.88,3.36-4.33,224.81-2.65,448.55-30.69,643.51,26.27,203.98,59.74,379.13,192.48,598.69,244.65,218.77,51.78,480.96-21.71,723.52-139.19,123.1-59.61,236.37-121.92,351.06-157.08,98.66-30.2,206.56-27.89,280.58,19.7-1.35,1.88-2.66,3.76-4,5.64-74.13-48-181.73-51.55-280.32-22.46-114.32,33.75-227.38,94.67-350.03,152.96-242.01,115.01-503.11,186.63-721.61,135.18-219.14-51.79-395.1-182.56-599.38-239.87-196.01-54.86-419.98-24.53-645.39-21.47h0Z"/>
        <path class="cls-7" d="M146.42,678.66c1.14-1.45,2.32-2.88,3.5-4.31,219.51-1.42,440.87-7.54,624.6,70.88,200.01,85.53,365.2,241.17,588.93,300.72,109.22,28.99,234.59,28.56,355.11-2.55,132.05-34.08,260.32-99.28,387.69-172.65,128.11-73.79,244.3-150.95,363.08-202.2,99.95-43.05,210.78-55.85,284.71-13.87-1.39,1.89-2.76,3.78-4.16,5.67-73.84-42.62-184.41-31.4-284.19,10.31-118.38,49.63-234.23,125.37-361.86,197.78-127.02,72.09-254.91,136.24-386.48,169.8-120.35,30.6-245.33,31.03-354.55,2.47-223.35-58.56-389.62-211.87-590.06-294.92-184.82-76.43-406.39-68.41-626.33-67.12h0Z"/>
        <path class="cls-6" d="M183.63,634.19c1.22-1.36,2.43-2.73,3.59-4.12,215.75-5.7,435.37,5.38,607.59,103.54,195.14,111.37,347.3,292.97,574.83,366.42,108.5,34.91,237.6,35.94,359.94,1.35,136.66-38.71,268.94-113.9,400.17-200.08,262.56-172.58,510.24-375.94,668.66-305.4-1.43,1.84-2.84,3.68-4.27,5.52-156.82-71.91-405.21,126.62-666.48,296.48-130.86,85.01-262.76,159.3-399,197.68-122.18,34.36-250.95,33.63-359.57-.61-227.2-71.82-380.74-250.86-576.36-359.8-173.32-96.37-393.05-106.05-609.11-100.98h0Z"/>
        <path class="cls-3" d="M221.57,592.53c1.23-1.25,2.43-2.51,3.63-3.76,108.37-7.72,215.28-13.32,314.96,3.4,99.29,16.69,194.38,59.21,278.22,119.35,189.88,136.42,326.23,345.54,556.72,439.68,106.38,43.36,238.78,49.49,362.55,13.92,140.83-40.58,277.17-124.09,412.14-222,276.83-200.88,511.82-454.77,693.99-403.37-1.45,1.73-2.87,3.47-4.35,5.18-179.42-53.64-415.96,195.53-691.38,393.73-134.61,96.86-270.58,179.65-411.03,220.18-123.65,35.6-255.76,30.1-362.41-12.34-230.26-91.89-368.21-298.37-558.61-432.45-84.28-59.3-179.68-101.06-279.14-117.53-99.91-16.51-206.86-11.15-315.27-4h0Z"/>
        <path class="cls-4" d="M259.68,555.35c1.2-1.09,2.42-2.16,3.62-3.24,108.26-14.99,215.23-24.89,312.99-7.5,97.71,17.41,189.98,66.58,269.01,134.88,184.79,159.81,303.47,396.64,535.03,518.26,103.06,53.99,237.86,69.28,362.69,35.33,144.28-39.34,284.62-129.2,423.16-237.2,146.57-114.24,277.12-239.03,409.34-347.19,113.14-92.53,221.53-168.6,314.03-160.6-1.43,1.56-2.95,3.09-4.36,4.67-91.42-9.73-200.15,64.31-312.72,155.02-131.74,106.28-261.78,229.52-407.69,342.62-138.24,107.1-278.18,196.48-422.18,236.07-124.74,34.22-259.37,19.97-362.79-32.92-231.58-118.72-351.96-352.95-537.24-510.62-79.49-67.6-171.99-116.23-269.84-133.7-97.9-17.44-204.83-8.09-313.07,6.11h0Z"/>
        <path class="cls-1" d="M341.14,596.77c47.99-7,46.37,36.56,2.82,73.06-9.87,8.3-21.51,15.55-33.57,21.48-6.44,3.19-13.01,5.96-19.52,8.43-10.89,4.12-10.33,3.8-14.43,11.31-9.58,17.59-14.39,36.01-37.1,52.18-37.97,26.98-120.96,38.78-85.79.59,15.88-17.11,49.88-31.04,57.3-19.38,6.76,10.74-21.55,31.98-44.85,33.61-4.2,7.75,14.23,5.18,24.37,2.68,12.31-3.03,25.95-8.22,37.14-15.17,27.31-16.93,32.62-40.22,42.35-58.83-70.13,16.44-90.69-26.21-44.09-78.8,22.06-24.86,56.45-46.06,89.8-64.55,18.06-9.97,36.32-19.41,54.55-28.73,12.54-6.44,20.63-22.39,27.2-29.44,19.38-20.58,50.5-42.72,88.09-61.74,13.95-7.03,30.33-14.74,29.37-10.75-1.24,5.11-9.44,14.39-17.21,23.96-17.64,21.66-47.76,48.64-83.3,72.65-15.04,10.13-30.73,19.62-46.66,28.11-5.51,2.97-8.99,11.16-11.06,14.5-5.22,8.16-10.18,16.45-15.4,24.81h0ZM392.1,523.39c23.12-11.51,46.52-25.01,67.05-39.64,12.98-9.23,38.74-28.42,31.89-30.9-8.05-2.85-42.36,18.21-54.47,26.59-21.11,14.63-37.56,30.28-47.33,45.16.9-.17,1.85-.58,2.87-1.2h0ZM319.18,582.05c-52.65,27.63-119.68,75.81-105.38,106.89,6.23,13.39,28.83,17.56,55.08,11.89,8.44-1.84,9.08-8.67,11.99-13.88,3.93-7.19,8-14.43,12.09-21.77,7.46-13.38,15.19-26.88,23.19-40.45-22.92,5.35-56.24,27.7-57.78,44.73-.27,3.56,9.66,10.7,7.21,13.77-5.98,7.35-15.85-6.3-16.38-7.99-4.4-14,10.89-36.47,36.78-53.94,13.28-8.94,27.24-16.2,41.03-20.97,8.23-2.88,9.41-9.16,12.79-14.54,4.52-7.03,9.07-14.05,13.42-20.9-11.36,5.59-22.72,11.21-34.04,17.15h0ZM324.89,623.98c-14.54,24.98-27.99,49.54-40.82,73.11,24.99-8.84,50.33-27.22,59.1-45.55,4.09-8.49,4.37-16.29.59-21.4-1.05-1.38-16.57-9.25-18.87-6.16h0Z"/>
        <path class="cls-2" d="M483.29,538.07c1.86.06,3.72.12,5.57.2-20.54,25.33-40.31,50.62-59.61,75.43.47.18,1.23-.42,1.83-.66,4.25-1.83,9.34-3.77,13.87-4.7,12.92-2.67,16.29,4.8,11.95,12.98-2.58,4.94-8.22,9.69-12.96,12.88-9.35,6.33-19.66,10.35-30.01,14.98-8.9,3.98-17.57,8.44-26.28,13.05-1.18.64-2.34,1.49-3.58,1.77,31.32-39.97,63.77-82.57,98.86-125.61.11-.15.36-.31.36-.31ZM401.45,651.31c9.39-5.24,19.43-10.59,28.24-17.17,3.26-2.48,6.98-5.51,9.6-8.97,4.41-5.72,4.53-12.17-3.39-10.15-3.22.81-10.05,4.1-12.78,6.69-2.22,2.04-4.03,5.08-6.1,7.72-6.1,7.82-12.36,15.95-17.95,23.09.8-.12,1.59-.77,2.37-1.21Z"/>
        <path class="cls-5" d="M1077.54,885.56c7.22,35.13,14.04,63.94,28.32,81.55-1.26-1.12-2.51-2.25-3.75-3.38-13.55-15.91-20.34-42.13-27.32-74.14-4.94,1.48-16.01-4.21-27.41-13.87-13.6-11.51-22.52-24.61-19.91-30.05,2.84-5.79,16.2-1.6,29.84,10.05,12.21,10.4,20.44,23.09,20.23,29.83Z"/>
        <path class="cls-19" d="M1604.85,1201.69c-.38,1.31-1.12,2.76-1.08,3.74.03,1.17.93,2.81,1.29,4.2,2.83,11.02,3.62,23.31,1.52,33.49-2.19,10.58-7.05,19.44-12.58,26.96-5.28,7.18-11.59,13.61-17.83,19.47-4.46,4.19-8.1,8.86-9.68,15.98.08,1.91.17,3.82.23,5.72-1.62-.25-3.22-.53-4.84-.81-2.18-52.81-4.95-107.32-10.11-162.15-6.49,7.03-19.89,7.1-32.74-.78-15.54-9.53-24.62-26.34-20.78-37.28,3.89-10.97,19.43-12.47,35.22-3.76,13.93,7.7,23.19,21.31,22.23,32.53,3.1,31.09,5.39,62.36,7.23,93.56,6.19-4.28,12.13-8.26,18.2-12.8,9.42-7.03,19.54-15.46,21.05-31.09,1.56-16.38-3.66-32.43-9.8-42.7-.82-1.35-1.72-2.28-.95-2.78,2.38-1.54,4.22,2.81,5.12,4.39,3.83,6.66,6.99,14.01,8.83,22.52,2.58,12.08,1.88,23.2-.54,31.59ZM1601.49,1211.54c-.54-.62-.76,1-1.07,1.59-5.55,10.98-13.76,19.35-21.48,27.98-6.45,7.21-11.96,16.32-14.03,28.32.13,2.71.26,5.42.38,8.12,9.74-5.61,19.68-12.33,26.69-22.11,7.26-10.14,13.49-23.23,9.51-43.89Z"/>
        <path class="cls-20" d="M486.65,716.17c27.63-23.82,55.01-58.55,86.43-99.66-1.37-.3-2.73-.6-4.09-.9-30.06,39.35-56.6,72.99-83.11,97.28-3.86-2.69-16.06-3.07-30.73.2-17.84,3.98-32.35,11.27-31.94,15.27.33,3.47,15.31,2.49,32.98-1.11,15.5-3.14,28.12-7.44,30.47-11.07Z"/>
        <path class="cls-21" d="M956.85,842.93c15.32,4.4,37.48-11.38,57.75-34.75-1.08-1.49-2.2-2.97-3.27-4.46-19.57,22.79-39.72,38.99-55.79,36.82-3.78-4.22-13.77-12.67-25.55-19.93-14.01-8.6-25.21-12.66-24.05-10.33.94,1.81,13.76,9.52,27.74,18.55,12.55,8.11,22.03,14.45,23.18,14.09Z"/>
        <path class="cls-22" d="M1026.85,892.22c11.83.82,25.83-8.45,39.21-21.94-1.09-1.58-2.18-3.16-3.27-4.75-12.65,12.97-25.32,22.24-37.05,23.11-3.49-5.68-13.11-16.08-24.62-24.72-13.65-10.28-24.76-14.53-23.94-10.67.68,3.23,13.01,13.51,26.68,24.11,12.28,9.52,21.73,16.01,22.99,14.86Z"/>
        <path class="cls-24" d="M870.58,791.55c16.65,12.68,55.04-12,87.22-53.72-1.1-1.35-2.17-2.73-3.27-4.07-31.55,41.12-67.58,67.9-85.66,57.34-4.2-1.99-14.82-7.81-26.99-13.36-14.49-6.61-25.38-10.66-23.93-10.93,1.77-.34,15.03,3.68,29.42,10.77,12.9,6.36,22.14,12.62,23.22,13.98Z"/>
        <path class="cls-35" d="M2725.9,637.27c41.69-53.48,83.99-103.63,129.25-146.7-1.22.15-2.45.24-3.68.42-42.65,39.99-82.76,86.52-122.21,136.39.07-8.16-9.38-11.24-23.81-6.83-17.53,5.37-35.44,18.68-39.9,29.73-4.49,11.38,5.8,17,22.99,12.77,15.07-3.72,30.64-14.6,37.37-25.78Z"/>
        <path class="cls-36" d="M2607.95,692.56c57.95-72.6,115.83-138.73,181.16-184.55-1.35.55-2.7,1.11-4.08,1.63-62.55,42.89-118.36,105.15-174.24,174.02-.48-7.14-10.61-9.09-25.44-4.11-17.98,6.04-35.8,19.1-39.72,29.2-3.97,10.36,7.27,14.52,24.95,9.4,15.53-4.5,31.03-15.31,37.37-25.59Z"/>
        <path class="cls-37" d="M1167.3,967.92c8.43,45.45,14.48,82.71,35.51,96.91-1.2-1.39-2.39-2.79-3.61-4.18-20.15-12.39-26.57-46.82-34.77-88.77-5.03,1.25-16.11-5.09-27.39-15.53-13.47-12.49-22.17-26.26-19.48-31.42,2.9-5.52,16.21-.38,29.81,12.02,12.12,11.07,20.26,24.17,19.93,30.96Z"/>
        <path class="cls-38" d="M1251.71,1059.14c5.1,30.32,10.18,56.22,18.66,76.13-1.3-1.22-2.58-2.44-3.86-3.66-8.02-17.98-12.99-41.33-17.85-68.66-5.23,1.01-16.51-5.97-27.87-17.02-13.58-13.26-22.19-27.37-19.37-32.14,3.1-5.17,16.6.73,30.38,13.68,12.26,11.52,20.42,24.9,19.91,31.67Z"/>
        <path class="cls-23" d="M1343.43,1120.48c4.72,40.12,8.98,75.59,15.98,104.96-1.37-1.11-2.73-2.23-4.09-3.34-6.7-26.95-10.9-59.45-15.36-96.26-5.69,2.5-17.64-3.18-29.34-14.14-14.03-13.18-22.54-28.75-19.25-35.2,3.5-6.8,17.66-2.29,31.96,10.36,12.66,11.23,20.94,25.39,20.11,33.63Z"/>
        <path class="cls-26" d="M1194.42,1056.77c1.96,1.84,4.08,3.39,6.38,4.46,49.81,58.61,101.24,115.16,158.59,165.2-1.3-4.8-2.52-9.79-3.69-15-57.99-46.63-110.42-99.67-161.28-154.66Z"/>
        <g>
          <path class="cls-25" d="M2105.16,880.54c34.5,40.17,53.02,103.1,65.27,179.63-2,1.64-4.02,3.26-6.04,4.87-11.6-74.09-29.07-135.52-60.87-176.85-5.3,8.5-19.89,17.89-36.38,21.88-19.66,4.7-34.38.31-33.22-8.69,1.11-8.36,17.73-18.32,37.36-23.5,17.6-4.58,31.74-3.73,33.88,2.65Z"/>
          <path class="cls-27" d="M2269.57,835.95c21.01,26.56,35.92,62.58,47.39,105.23-1.99,1.82-3.96,3.66-5.98,5.47-10.64-40.47-24.29-75.07-43.18-101.67-5.49,10.29-20.57,22.44-37.52,28.69-20.18,7.47-35.24,3.85-33.82-6.89,1.31-10.03,18.5-23.47,38.6-31.18,18.01-6.88,32.41-6.89,34.51.35Z"/>
          <path class="cls-28" d="M2157.89,1040.39c2.03,10.71,3.92,21.68,5.61,32.92,53.72-33.24,106.71-70.11,159.25-109.64-2.38-9.32-4.92-18.37-7.67-27.14-51.89,37.44-104.19,72.37-157.19,103.86Z"/>
        </g>
        <g>
          <path class="cls-44" d="M2558.24,674.73c-33.42-19.88-85.42-12.03-127.53,12.56,1.5-.61,2.99-1.23,4.49-1.83,40.73-24.36,90.01-34.28,123.6-17.69,3.97-8.02,17.92-19.62,34.65-29.16,20.26-11.39,37.34-15.67,37.83-8.49.52,8.04-16.05,25.08-36.61,36.99-18.21,10.49-32.98,13.06-36.42,7.62Z"/>
          <path class="cls-30" d="M2390.04,751.83c-20.93-13.35-49.35-17.12-75.05-11.02,1.6-.79,3.17-1.63,4.78-2.4,24.19-6.12,50.74-4.06,71.05,6.88,4.2-7.4,18.31-17.78,35.03-26.14,20.26-10.08,37.09-13.32,37.22-6.27.18,7.84-16.65,23.38-37.15,33.64-18.06,9.05-32.73,10.63-35.87,5.31Z"/>
          <path class="cls-45" d="M2451.72,676.42c-6.29,3.3-12.59,6.89-18.85,10.77-43.31,18.04-86.86,37.59-131.17,57.48,5.58-1.88,11.17-3.47,16.72-4.73,45.04-21.74,89.34-43.23,133.3-63.51Z"/>
          <path class="cls-43" d="M2477.09,665.58c-6.1,2.09-12.22,4.55-18.28,7.34-44.07,21.23-88.43,43.79-133.59,66.61,5.36-.73,10.71-1.2,15.99-1.2,45.91-24.72,91.05-49.3,135.88-72.76Z"/>
        </g>
        <g>
          <path class="cls-29" d="M2663.1,571.6c-53.1,23.74-101.71,68.4-150.26,120.54,1.32-.08,2.64-.14,3.96-.18,46.74-50.64,93.59-94.34,144.71-119.91,1.68-1.01,13.41-6.35,29.15-14.27,18.83-9.49,36.64-19.63,40.06-21.73,2.9-1.68-10.11,6.34-29.37,16.77-17.1,9.31-33.11,16.74-38.25,18.77Z"/>
          <path class="cls-46" d="M2499.67,654.1c-31.11,11.74-61.17,32.48-90.84,57.67,1.44-.35,2.86-.7,4.3-1.04,27.89-24.02,56.18-44.05,85.43-56.73,2.25-1.44,14.53-7.16,30.6-14.97,19.28-9.4,36.86-18.82,39.65-19.78,2.3-.8-11.57,7.79-31.16,17.88-17.4,8.87-33.25,15.52-37.98,16.97Z"/>
          <path class="cls-34" d="M2534.5,674.51c-6.89,7.12-13.68,14.41-20.48,21.8-39.52,6.74-79.57,16.75-120.2,28.55,6.26-5.54,12.51-10.94,18.85-16.13,41.16-13.6,81.72-25.48,121.83-34.22Z"/>
        </g>
        <g>
          <path class="cls-32" d="M582.69,711.77c39.72-28.66,76.9-81.89,123.58-146.54-1.25-.57-2.49-1.16-3.74-1.72-45.35,62.7-82.08,114.74-120.66,145.15-3.76-2.95-15.47-4.66-29.52-3.1-17.05,1.93-30.9,7.34-30.37,10.91.43,3.04,14.89,3.34,31.77,1.93,14.83-1.24,26.79-3.64,28.95-6.64Z"/>
          <path class="cls-31" d="M768.8,749.47c26.34,5.41,61.18-33.14,97.93-82.88-1.14-1.09-2.28-2.16-3.41-3.24-35.89,48.71-67.95,86.96-96.02,85.1-4.12-1.98-15.11-6.16-27.84-9.18-15.28-3.6-27.19-4.56-25.73-4.07,1.31.43,15.17,2.55,30.29,6.72,13.48,3.71,23.51,7.51,24.79,7.56Z"/>
          <path class="cls-33" d="M682.18,693.08c23.95-24,48.11-55.72,74.9-92.82-1.21-.75-2.43-1.48-3.64-2.22-25.37,35.16-48.49,65.6-71.27,89.51-2.87-5.52-13.66-9.91-27.26-9.67-16.47.3-30.55,6.64-31.1,12.99-.4,5.84,12.71,9.81,28.99,10.13,14.36.26,26.44-2.75,29.37-7.92Z"/>
          <path class="cls-40" d="M758.98,711.22c18.32-17.23,36.73-40.06,56.71-67.07-1.16-.93-2.34-1.86-3.53-2.76-18.65,25.3-36.02,47.03-53.22,64.14-2.8-6.07-13.1-12.09-26.17-13.6-15.76-1.82-29.38,2.96-29.83,9.41-.42,5.91,12.31,11.62,27.9,14.07,13.82,2.17,25.38.73,28.15-4.19Z"/>
          <path class="cls-39" d="M686.26,586.92c5.66-7.73,11.44-15.59,17.27-23.61,60.93,19.23,118.27,51.88,169.85,93.82-4.83,6.35-9.59,12.5-14.32,18.41-52.8-39.84-111.19-70.58-172.8-88.62Z"/>
          <path class="cls-41" d="M662.89,618.99c5.32-7.02,10.78-14.19,16.23-21.56,61.66,18.27,120.19,48.87,173.38,88.32-4.46,5.36-8.83,10.49-13.19,15.36-54.4-37.11-114.03-65.46-176.41-82.11Z"/>
        </g>
        <g>
          <path class="cls-47" d="M1887.11,1061.14c-15.99-74.81-40.12-136-84.61-161.61,1.64-.31,3.28-.61,4.92-.92,42.75,23.67,67.05,80.8,83.3,150.83,6.73-10.75,22.18-18.69,38.39-19.54,19.64-1.01,32.83,9.26,29.18,24.26-3.83,15.42-22.97,29.06-42.45,29.23-17.17.13-28.82-9.84-28.74-22.25Z"/>
          <path class="cls-42" d="M1648.43,1130.02c-10.11-85.38-25.33-160.43-58.77-215.11,1.57.03,3.14.04,4.71.06,32.36,51.89,47.75,123.1,58.11,204.35,6.89-8.83,21.38-12.04,36.17-7.51,17.74,5.45,28.95,20.75,24.53,35.05-4.5,14.44-22.73,21.55-40.2,15.12-15.56-5.72-25.39-19.55-24.55-31.95Z"/>
          <path class="cls-48" d="M1783.44,1008.41c-12.35-39.05-28.16-72.03-50.87-94.59,1.63-.22,3.25-.46,4.89-.7,21.35,20.64,36.67,50.59,48.79,86,5.84-8.14,20.38-13.16,36.15-12.56,19.04.74,32.61,10.01,29.89,21.99-2.85,12.47-20.8,22.34-39.68,20.83-16.69-1.35-28.48-10.74-29.16-20.98Z"/>
          <path class="cls-14" d="M1689.14,1009.38c-9.5-33.03-21.24-62.21-37.08-85.84,1.61-.1,3.22-.22,4.82-.34,14.69,21.45,25.86,47.71,35.06,77.37,5.76-7.34,19.82-10.58,35.08-8.09,18.37,3.02,31.39,13.86,28.61,25.42-2.91,11.98-20.38,19.49-38.57,15.72-16.12-3.4-27.39-14.08-27.93-24.24Z"/>
          <path class="cls-15" d="M1819.36,907.28c-4.16-3.26-8.5-6.18-13.05-8.67-74.79,11.63-149.9,15.01-222.12,8.55,3.54,4.93,6.9,10.12,10.11,15.55,73.28,4.59,149.41-1.12,225.06-15.43Z"/>
          <path class="cls-16" d="M1836.3,924.78c-3.77-4.52-7.72-8.72-11.9-12.52-75.96,15.76-152.44,23.06-226.23,19.85,3.15,5.94,6.15,12.13,9,18.52,74.79,1.71,152.3-7.64,229.12-25.85Z"/>
        </g>
        <path class="cls-13" d="M1358.7,990.56c11.08,73.69,16.76,144.77,24.4,208.52,2.27,1.19,4.55,2.35,6.86,3.49-7.4-64.71-13.09-136.43-24.31-210.42-2.32-.52-4.63-1.06-6.94-1.59h0Z"/>
        <path class="cls-18" d="M2701.86,716.98c56.46-79.41,114.22-157.18,178.38-225.02,1.8.12,3.59.27,5.36.47-64.26,69.2-122.14,147.84-178.6,227.81-1.69-1.12-3.42-2.19-5.14-3.26h0Z"/>
        <path class="cls-17" d="M110.6,722.47c47.48-61.2,95.84-120.25,149.88-168.72,2.34-.31,4.68-.63,7.02-.94-54.09,49.07-102.32,108.41-149.7,169.56-2.4.04-4.8.08-7.2.1h0Z"/>
      </g>
    </g>
  </g>
</svg>