<?xml version="1.0" encoding="UTF-8"?>
<svg id="Layer_1" data-name="Layer 1" xmlns="http://www.w3.org/2000/svg" xmlns:xlink="http://www.w3.org/1999/xlink" viewBox="0 0 871.35 192.68">
  <defs>
    <style>
      .cls-1, .cls-2 {
        fill: #3d215b;
      }

      .cls-3 {
        fill: url(#linear-gradient-8);
      }

      .cls-4 {
        fill: url(#linear-gradient-7);
      }

      .cls-5 {
        fill: url(#linear-gradient-5);
      }

      .cls-6 {
        fill: url(#linear-gradient-6);
      }

      .cls-7 {
        fill: url(#linear-gradient-9);
      }

      .cls-8 {
        fill: url(#linear-gradient-4);
      }

      .cls-9 {
        fill: url(#linear-gradient-3);
      }

      .cls-10 {
        fill: url(#linear-gradient-2);
      }

      .cls-11 {
        fill: url(#radial-gradient);
      }

      .cls-12 {
        fill: url(#linear-gradient);
      }

      .cls-13 {
        fill: #86c9ef;
      }

      .cls-14 {
        fill: #fff;
      }

      .cls-15 {
        fill: url(#linear-gradient-10);
      }

      .cls-16 {
        fill: url(#linear-gradient-11);
      }

      .cls-17 {
        fill: url(#linear-gradient-12);
      }

      .cls-18 {
        fill: url(#linear-gradient-13);
      }

      .cls-19 {
        fill: url(#linear-gradient-19);
      }

      .cls-20 {
        fill: url(#linear-gradient-14);
      }

      .cls-21 {
        fill: url(#linear-gradient-21);
      }

      .cls-22 {
        fill: url(#linear-gradient-20);
      }

      .cls-23 {
        fill: url(#linear-gradient-22);
      }

      .cls-24 {
        fill: url(#linear-gradient-15);
      }

      .cls-25 {
        fill: url(#linear-gradient-16);
      }

      .cls-26 {
        fill: url(#linear-gradient-17);
      }

      .cls-27 {
        fill: url(#linear-gradient-18);
      }

      .cls-28 {
        fill: #c5d92d;
        stroke: #3d215b;
        stroke-width: .06px;
      }

      .cls-28, .cls-2 {
        stroke-miterlimit: 10;
      }

      .cls-2 {
        stroke: #c5d92d;
        stroke-width: .53px;
      }
    </style>
    <linearGradient id="linear-gradient" x1="289.18" y1="58.65" x2="453.74" y2="58.65" gradientUnits="userSpaceOnUse">
      <stop offset=".13" stop-color="#c5d92d"/>
      <stop offset=".2" stop-color="#c8d52b"/>
      <stop offset=".28" stop-color="#d2ca28"/>
      <stop offset=".34" stop-color="#e3b722"/>
      <stop offset=".41" stop-color="#f9a01b"/>
      <stop offset=".46" stop-color="#f6a01e"/>
      <stop offset=".51" stop-color="#f0a32a"/>
      <stop offset=".56" stop-color="#e5a63e"/>
      <stop offset=".61" stop-color="#d7ac59"/>
      <stop offset=".66" stop-color="#c3b27c"/>
      <stop offset=".71" stop-color="#acbba8"/>
      <stop offset=".75" stop-color="#91c5da"/>
      <stop offset=".77" stop-color="#86c9ef"/>
    </linearGradient>
    <linearGradient id="linear-gradient-2" x1="463.61" y1="110.75" x2="463.69" y2="58.91" gradientTransform="translate(21.54 -.64) rotate(.09) scale(.95 1) skewX(.19)" gradientUnits="userSpaceOnUse">
      <stop offset=".13" stop-color="#c5d92d"/>
      <stop offset=".21" stop-color="#cece29"/>
      <stop offset=".36" stop-color="#e7b321"/>
      <stop offset=".44" stop-color="#f9a01b"/>
      <stop offset=".49" stop-color="#f6a01f"/>
      <stop offset=".54" stop-color="#eea32d"/>
      <stop offset=".59" stop-color="#e2a744"/>
      <stop offset=".65" stop-color="#d1ae64"/>
      <stop offset=".71" stop-color="#bab68d"/>
      <stop offset=".77" stop-color="#a0bfbe"/>
      <stop offset=".82" stop-color="#86c9ef"/>
    </linearGradient>
    <linearGradient id="linear-gradient-3" x1="519.87" y1="109.23" x2="520.02" y2="16.13" xlink:href="#linear-gradient-2"/>
    <linearGradient id="linear-gradient-4" x1="590.28" y1="107.65" x2="590.34" y2="68.85" xlink:href="#linear-gradient-2"/>
    <linearGradient id="linear-gradient-5" x1="659.23" y1="105.6" x2="659.3" y2="64.59" xlink:href="#linear-gradient-2"/>
    <linearGradient id="linear-gradient-6" x1="732.94" y1="103.66" x2="733" y2="65.46" xlink:href="#linear-gradient-2"/>
    <linearGradient id="linear-gradient-7" x1="831.29" y1="101.19" x2="831.45" y2="8.23" xlink:href="#linear-gradient-2"/>
    <linearGradient id="linear-gradient-8" x1="15.57" y1="27.69" x2="23.46" y2="19.8" gradientUnits="userSpaceOnUse">
      <stop offset="0" stop-color="#fff" stop-opacity="0"/>
      <stop offset="1" stop-color="#3d215b"/>
    </linearGradient>
    <linearGradient id="linear-gradient-9" x1="1168.77" y1="27.69" x2="1176.66" y2="19.8" gradientTransform="translate(1402.63) rotate(-180) scale(1 -1)" gradientUnits="userSpaceOnUse">
      <stop offset=".01" stop-color="#fff" stop-opacity="0"/>
      <stop offset="1" stop-color="#3d215b"/>
    </linearGradient>
    <radialGradient id="radial-gradient" cx="125.24" cy="105.12" fx="125.24" fy="105.12" r="18.3" gradientUnits="userSpaceOnUse">
      <stop offset="0" stop-color="#fff"/>
      <stop offset=".1" stop-color="#fff" stop-opacity=".88"/>
      <stop offset=".44" stop-color="#fff" stop-opacity=".51"/>
      <stop offset=".71" stop-color="#fff" stop-opacity=".23"/>
      <stop offset=".9" stop-color="#fff" stop-opacity=".06"/>
      <stop offset="1" stop-color="#fff" stop-opacity="0"/>
    </radialGradient>
    <linearGradient id="linear-gradient-10" x1="124.86" y1="102.27" x2="124.86" y2="59.59" gradientUnits="userSpaceOnUse">
      <stop offset="0" stop-color="#fff"/>
      <stop offset="1" stop-color="#fff" stop-opacity="0"/>
    </linearGradient>
    <linearGradient id="linear-gradient-11" x1="126.07" y1="103.22" x2="168.75" y2="103.22" gradientUnits="userSpaceOnUse">
      <stop offset="0" stop-color="#fff"/>
      <stop offset=".12" stop-color="#fff" stop-opacity=".98"/>
      <stop offset=".25" stop-color="#fff" stop-opacity=".93"/>
      <stop offset=".37" stop-color="#fff" stop-opacity=".85"/>
      <stop offset=".5" stop-color="#fff" stop-opacity=".74"/>
      <stop offset=".63" stop-color="#fff" stop-opacity=".59"/>
      <stop offset=".76" stop-color="#fff" stop-opacity=".41"/>
      <stop offset=".89" stop-color="#fff" stop-opacity=".2"/>
      <stop offset="1" stop-color="#fff" stop-opacity="0"/>
    </linearGradient>
    <linearGradient id="linear-gradient-12" x1="79.92" y1="103.22" x2="122.6" y2="103.22" gradientUnits="userSpaceOnUse">
      <stop offset="0" stop-color="#fff" stop-opacity="0"/>
      <stop offset=".11" stop-color="#fff" stop-opacity=".2"/>
      <stop offset=".24" stop-color="#fff" stop-opacity=".41"/>
      <stop offset=".37" stop-color="#fff" stop-opacity=".59"/>
      <stop offset=".5" stop-color="#fff" stop-opacity=".74"/>
      <stop offset=".63" stop-color="#fff" stop-opacity=".85"/>
      <stop offset=".75" stop-color="#fff" stop-opacity=".93"/>
      <stop offset=".88" stop-color="#fff" stop-opacity=".98"/>
      <stop offset="1" stop-color="#fff"/>
    </linearGradient>
    <linearGradient id="linear-gradient-13" x1="124.86" y1="102.27" x2="124.86" y2="144.96" xlink:href="#linear-gradient-11"/>
    <linearGradient id="linear-gradient-14" x1="81.62" y1="542.23" x2="81.62" y2="562.79" gradientTransform="translate(-314.47 427.81) rotate(45) scale(1 -1)" gradientUnits="userSpaceOnUse">
      <stop offset="0" stop-color="#fff"/>
      <stop offset=".11" stop-color="#fff" stop-opacity=".79"/>
      <stop offset=".24" stop-color="#fff" stop-opacity=".58"/>
      <stop offset=".37" stop-color="#fff" stop-opacity=".4"/>
      <stop offset=".5" stop-color="#fff" stop-opacity=".26"/>
      <stop offset=".63" stop-color="#fff" stop-opacity=".15"/>
      <stop offset=".75" stop-color="#fff" stop-opacity=".06"/>
      <stop offset=".88" stop-color="#fff" stop-opacity=".02"/>
      <stop offset="1" stop-color="#fff" stop-opacity="0"/>
    </linearGradient>
    <linearGradient id="linear-gradient-15" x1="-91.39" y1="592.96" x2="-91.39" y2="613.52" gradientTransform="translate(-405.59 380.27) rotate(71.18) scale(1 -1)" gradientUnits="userSpaceOnUse">
      <stop offset="0" stop-color="#fff"/>
      <stop offset=".04" stop-color="#fff" stop-opacity=".92"/>
      <stop offset=".15" stop-color="#fff" stop-opacity=".71"/>
      <stop offset=".26" stop-color="#fff" stop-opacity=".52"/>
      <stop offset=".37" stop-color="#fff" stop-opacity=".36"/>
      <stop offset=".49" stop-color="#fff" stop-opacity=".23"/>
      <stop offset=".61" stop-color="#fff" stop-opacity=".13"/>
      <stop offset=".73" stop-color="#fff" stop-opacity=".06"/>
      <stop offset=".86" stop-color="#fff" stop-opacity=".01"/>
      <stop offset="1" stop-color="#fff" stop-opacity="0"/>
    </linearGradient>
    <linearGradient id="linear-gradient-16" x1="270.74" y1="352.16" x2="270.74" y2="372.72" gradientTransform="translate(-314.47 47.45) rotate(-45)" xlink:href="#linear-gradient-14"/>
    <linearGradient id="linear-gradient-17" x1="162.19" y1="505.82" x2="162.19" y2="526.38" gradientTransform="translate(-405.59 94.98) rotate(-71.18)" gradientUnits="userSpaceOnUse">
      <stop offset="0" stop-color="#fff"/>
      <stop offset=".05" stop-color="#fff" stop-opacity=".88"/>
      <stop offset=".15" stop-color="#fff" stop-opacity=".68"/>
      <stop offset=".26" stop-color="#fff" stop-opacity=".5"/>
      <stop offset=".37" stop-color="#fff" stop-opacity=".34"/>
      <stop offset=".48" stop-color="#fff" stop-opacity=".22"/>
      <stop offset=".6" stop-color="#fff" stop-opacity=".12"/>
      <stop offset=".72" stop-color="#fff" stop-opacity=".05"/>
      <stop offset=".85" stop-color="#fff" stop-opacity=".01"/>
      <stop offset="1" stop-color="#fff" stop-opacity="0"/>
    </linearGradient>
    <linearGradient id="linear-gradient-18" x1="-384.18" y1="-301.86" x2="-384.18" y2="-281.29" gradientTransform="translate(-361.96 47.45) rotate(-135) scale(1 -1)" gradientUnits="userSpaceOnUse">
      <stop offset="0" stop-color="#fff"/>
      <stop offset=".38" stop-color="#fff" stop-opacity=".58"/>
      <stop offset=".68" stop-color="#fff" stop-opacity=".27"/>
      <stop offset=".89" stop-color="#fff" stop-opacity=".07"/>
      <stop offset="1" stop-color="#fff" stop-opacity="0"/>
    </linearGradient>
    <linearGradient id="linear-gradient-19" x1="-137" y1="-370.04" x2="-137" y2="-349.48" gradientTransform="translate(-270.84 94.98) rotate(-108.82) scale(1 -1)" gradientUnits="userSpaceOnUse">
      <stop offset="0" stop-color="#fff"/>
      <stop offset=".02" stop-color="#fff" stop-opacity=".96"/>
      <stop offset=".13" stop-color="#fff" stop-opacity=".74"/>
      <stop offset=".25" stop-color="#fff" stop-opacity=".54"/>
      <stop offset=".37" stop-color="#fff" stop-opacity=".38"/>
      <stop offset=".49" stop-color="#fff" stop-opacity=".24"/>
      <stop offset=".62" stop-color="#fff" stop-opacity=".13"/>
      <stop offset=".74" stop-color="#fff" stop-opacity=".06"/>
      <stop offset=".87" stop-color="#fff" stop-opacity=".01"/>
      <stop offset="1" stop-color="#fff" stop-opacity="0"/>
    </linearGradient>
    <linearGradient id="linear-gradient-20" x1="-493.1" y1="-193.75" x2="-493.1" y2="-173.19" gradientTransform="translate(-361.96 313.94) rotate(135)" xlink:href="#linear-gradient-11"/>
    <linearGradient id="linear-gradient-21" x1="-282.44" y1="-321.08" x2="-282.44" y2="-300.52" gradientTransform="translate(-270.84 266.41) rotate(108.82)" xlink:href="#linear-gradient-11"/>
    <linearGradient id="linear-gradient-22" x1="-540.8" y1="-263.95" x2="-540.8" y2="-263.95" gradientTransform="translate(-445.97 297.65) rotate(135)" gradientUnits="userSpaceOnUse">
      <stop offset="0" stop-color="#fff"/>
      <stop offset=".12" stop-color="#fafafa" stop-opacity=".98"/>
      <stop offset=".25" stop-color="#eee" stop-opacity=".93"/>
      <stop offset=".37" stop-color="#d9d9d9" stop-opacity=".85"/>
      <stop offset=".5" stop-color="#bcbcbc" stop-opacity=".74"/>
      <stop offset=".63" stop-color="#969696" stop-opacity=".59"/>
      <stop offset=".76" stop-color="#696969" stop-opacity=".41"/>
      <stop offset=".89" stop-color="#333" stop-opacity=".2"/>
      <stop offset="1" stop-color="#000" stop-opacity="0"/>
    </linearGradient>
  </defs>
  <g>
    <g>
      <path class="cls-2" d="M364.09,184.22h-62.9v-97.33h62.9v97.33Z"/>
      <path class="cls-2" d="M483.43,184.22h-40.63v-18.01l-15.44,12.05-15.31-11.92v17.88h-40.37v-97.33h40l15.57,18.62,15.82-18.62h40.37v97.33Z"/>
      <path class="cls-2" d="M586.7,146.75c0,9-5.06,14.96-15.82,14.96h-39.61v22.51h-40.25v-97.33h80.11c11.01,0,15.57,4.62,15.57,14.97v44.89ZM546.46,133.73v-16.67h-15.19v16.67h15.19Z"/>
      <path class="cls-2" d="M688.2,184.22h-40.5v-11.8h-15.19v11.8h-40.12v-82.37c0-8.4,4.68-14.97,15.57-14.97h64.42c9.75,0,15.82,6.45,15.82,14.97v82.37ZM647.83,134.21v-17.15h-15.19v17.15h15.19Z"/>
      <path class="cls-2" d="M773.38,184.22h-63.28c-8.35,0-15.57-5.23-15.57-14.96v-67.4c0-9.73,6.96-14.97,15.57-14.97h63.28v30.17h-16.58v36.98h16.58v30.17Z"/>
      <path class="cls-2" d="M871.08,117.06h-14.81v67.16h-62.9v-67.16h-14.93v-30.17h92.64v30.17Z"/>
    </g>
    <g>
      <path class="cls-12" d="M329.09,116.76c-.64,0-1.71-.12-3.27-.36-3.85-.69-6.86-2.38-8.97-5-2.1-2.62-3.17-6.07-3.17-10.25s1.33-9.8,3.97-16.73c2.62-6.92,5.97-13.61,9.96-19.91.49-.76.78-1.25.96-1.57-7.08.44-13.13.66-17.99.66-4.54,0-7.64-.06-9.2-.18-3.03-.32-5.42-.78-7.12-1.36-1.75-.6-3.1-1.44-4.03-2.5-.45-.55-.72-1-.85-1.4-.13-.4-.19-1.06-.19-2.09,0-.93.07-1.63.21-2.16.14-.52.43-1.18.89-2.01,2.5-4.37,7.96-9.73,16.23-15.94,8.24-6.19,17.96-12.32,28.89-18.22,10.93-5.91,21.58-10.72,31.66-14.32,5.4-1.91,9.68-2.88,12.72-2.88,2.67,0,4.9.74,6.61,2.21,1.74,1.48,2.62,3.42,2.62,5.75,0,2.05-.56,4.31-1.67,6.72-1.09,2.38-3.2,5.72-6.26,9.92-3.04,4.17-7.69,10.16-13.82,17.78-10.16,12.6-17.43,22.43-21.6,29.23-4.73,7.62-8.16,14.22-10.22,19.63-1.94,5.11-3.08,9.8-3.37,13.95,3.91-.8,8.83-2.45,14.63-4.92,6.15-2.62,15.05-7.15,26.46-13.49,13.74-7.6,26.4-15.8,37.63-24.37,11.22-8.57,20.19-16.83,26.66-24.57,6.41-7.67,9.66-14.11,9.66-19.14,0-1.86-.36-3.63-1.06-5.26-.7-1.6-1.66-2.85-2.87-3.7-1.25-.92-2.58-1.58-3.97-1.97-1.43-.41-3.01-.75-4.71-1.03-.93-.12-1.57-.23-1.95-.34-.79-.22-.9-.69-.9-.95,0-.95.55-2.07,3.19-2.07,1.52,0,3.49.35,5.87,1.03,3.66,1.13,6.45,2.49,8.31,4.05,1.89,1.58,3.3,3.77,4.19,6.51.36,1.08.55,2.49.55,4.2,0,4.31-1.53,9.12-4.56,14.29-3,5.12-7.29,10.57-12.75,16.2-5.45,5.62-11.96,11.44-19.35,17.3-7.38,5.86-15.57,11.79-24.34,17.64-8.76,5.84-18.15,11.68-27.91,17.36-6.78,3.95-12.61,7.01-17.34,9.11-4.73,2.1-8.53,3.5-11.3,4.16-2.78.66-5.17.99-7.11.99ZM374.32,8.01c-.35.03-1.29.2-3.77.81-6.52,1.53-14.16,4.4-22.7,8.55-8.56,4.15-16.94,8.89-24.9,14.1-7.95,5.21-14.56,10.16-19.63,14.71-6.19,5.56-7.49,8.38-7.49,9.76,0,.61.15,1.06.43,1.35.22.22.71.54,1.83.81,1.74.43,4.56.73,8.38.91,3.85.18,8.75.33,14.58.45,8.91.12,9.09.29,9.31.49l.06.06v.02c.15-.18.39-.5.77-1.06,6.23-8.89,15.55-20.18,27.73-33.56,6.04-6.59,10.2-11.17,12.37-13.63,2.07-2.34,2.78-3.35,3.03-3.78Z"/>
      <path class="cls-1" d="M379.78,1.06c2.56,0,4.65.69,6.27,2.08,1.62,1.39,2.44,3.17,2.44,5.35,0,1.98-.54,4.15-1.62,6.5-1.08,2.36-3.15,5.63-6.21,9.83-3.05,4.2-7.66,10.12-13.81,17.76-10.23,12.67-17.44,22.43-21.64,29.28-4.77,7.68-8.19,14.26-10.27,19.72-2.08,5.46-3.23,10.4-3.44,14.79,4.07-.75,9.21-2.45,15.4-5.08,6.2-2.63,15.03-7.14,26.51-13.51,13.82-7.64,26.38-15.78,37.69-24.41,11.31-8.63,20.22-16.85,26.74-24.65,6.52-7.8,9.78-14.3,9.78-19.48,0-1.94-.37-3.76-1.1-5.46-.74-1.7-1.75-3.01-3.05-3.92-1.3-.95-2.68-1.63-4.13-2.05-1.45-.42-3.04-.76-4.78-1.04-.91-.12-1.54-.23-1.88-.33-.35-.1-.52-.25-.52-.45,0-1.03.89-1.54,2.66-1.54,1.47,0,3.38.34,5.72,1.01,3.6,1.11,6.3,2.43,8.12,3.95,1.82,1.52,3.16,3.61,4.03,6.27.35,1.03.52,2.38.52,4.04,0,4.24-1.49,8.91-4.48,14.02s-7.21,10.47-12.67,16.1c-5.46,5.62-11.89,11.38-19.3,17.26s-15.51,11.75-24.3,17.61c-8.8,5.86-18.09,11.64-27.88,17.35-6.8,3.96-12.56,6.99-17.29,9.09-4.72,2.1-8.46,3.47-11.21,4.13-2.75.65-5.08.98-6.99.98-.61,0-1.67-.12-3.18-.36-3.73-.67-6.61-2.28-8.64-4.81-2.04-2.53-3.05-5.84-3.05-9.92s1.31-9.63,3.93-16.54c2.62-6.91,5.92-13.51,9.91-19.81.87-1.35,1.3-2.14,1.3-2.38v-.06c-7.45.48-13.71.71-18.78.71-4.55,0-7.6-.06-9.16-.18-2.99-.32-5.32-.76-6.99-1.34-1.67-.57-2.94-1.36-3.8-2.35-.39-.48-.64-.88-.75-1.22-.11-.34-.16-.98-.16-1.93,0-.87.06-1.54.19-2.02.13-.48.41-1.11.84-1.9,2.47-4.32,7.83-9.57,16.08-15.77,8.25-6.2,17.86-12.26,28.82-18.18,10.96-5.92,21.49-10.68,31.58-14.29,5.37-1.9,9.55-2.85,12.54-2.85M330.52,60.69c.09,0,.45-.48,1.1-1.43,6.24-8.91,15.47-20.08,27.68-33.5,6.07-6.61,10.19-11.16,12.38-13.63,2.19-2.48,3.28-3.93,3.28-4.37,0-.2-.17-.3-.52-.3-.43,0-1.78.28-4.03.83-6.59,1.54-14.19,4.41-22.81,8.58-8.62,4.18-16.94,8.89-24.95,14.14-8.02,5.25-14.58,10.17-19.69,14.76-5.11,4.59-7.67,7.98-7.67,10.16,0,.75.19,1.33.58,1.72.39.4,1.08.71,2.08.95,1.78.44,4.6.74,8.48.92,3.88.18,8.74.33,14.59.45,5.81.08,8.79.2,8.97.36.13.24.3.36.52.36M379.78,0c-3.14,0-7.36.95-12.89,2.91-10.1,3.61-20.78,8.43-31.73,14.35-10.96,5.92-20.7,12.06-28.95,18.26-8.45,6.34-13.8,11.61-16.37,16.09-.49.89-.79,1.59-.95,2.15-.16.57-.23,1.32-.23,2.3,0,1.1.07,1.8.21,2.25.15.47.45.98.94,1.56,1.01,1.15,2.44,2.04,4.27,2.68,1.73.6,4.16,1.06,7.22,1.39,1.63.12,4.66.18,9.27.18s10.37-.2,17.03-.6c-.12.2-.27.43-.44.7-4.01,6.33-7.37,13.06-10.01,20.01-2.65,7-4,12.69-4,16.92s1.11,7.87,3.29,10.58c2.19,2.73,5.31,4.47,9.28,5.19,1.61.25,2.7.37,3.37.37,1.98,0,4.41-.34,7.23-1.01,2.8-.67,6.64-2.08,11.39-4.19,4.74-2.11,10.59-5.18,17.39-9.14,9.76-5.69,19.16-11.53,27.93-17.38,8.78-5.85,16.98-11.79,24.38-17.66,7.41-5.88,13.94-11.72,19.4-17.35,5.49-5.66,9.81-11.14,12.83-16.3,3.07-5.25,4.63-10.14,4.63-14.55,0-1.8-.19-3.23-.58-4.38-.92-2.82-2.39-5.09-4.35-6.74-1.92-1.61-4.78-3-8.49-4.15-2.48-.71-4.44-1.06-6.03-1.06-3.24,0-3.72,1.63-3.72,2.6,0,.33.13,1.13,1.29,1.46.4.11,1.07.23,2.04.36,1.65.26,3.22.61,4.62,1.01,1.32.38,2.6,1.01,3.79,1.89,1.15.8,2.05,1.97,2.71,3.49.68,1.56,1.02,3.26,1.02,5.05,0,4.91-3.21,11.24-9.53,18.81-6.44,7.71-15.38,15.95-26.57,24.49-11.21,8.56-23.85,16.75-37.56,24.33-11.4,6.33-20.28,10.86-26.42,13.47-5.43,2.31-10.08,3.9-13.84,4.74.36-3.93,1.46-8.33,3.28-13.1,2.05-5.38,5.47-11.95,10.18-19.54,4.16-6.79,11.42-16.6,21.56-29.18,6.14-7.63,10.8-13.62,13.84-17.8,3.08-4.23,5.2-7.6,6.31-10.01,1.14-2.49,1.72-4.82,1.72-6.95,0-2.49-.94-4.56-2.81-6.15-1.81-1.55-4.15-2.33-6.96-2.33h0ZM330.3,59.32c-.65-.2-2.48-.3-9.25-.39-5.81-.12-10.71-.27-14.55-.44-3.79-.17-6.58-.47-8.28-.89-1.09-.26-1.47-.55-1.58-.67-.19-.19-.28-.52-.28-.98,0-1.04.95-3.65,7.32-9.37,5.05-4.54,11.63-9.47,19.56-14.66,7.94-5.2,16.3-9.93,24.84-14.07,8.51-4.12,16.11-6.99,22.59-8.51,1.13-.28,1.93-.46,2.49-.58-.45.58-1.15,1.44-2.26,2.68-2.17,2.46-6.33,7.04-12.37,13.62-12.19,13.4-21.54,24.71-27.77,33.61-.19.28-.34.49-.46.66h0Z"/>
    </g>
    <g>
      <g>
        <path class="cls-10" d="M448.47,110.78c-.85,0-1.68-.08-2.46-.23-2.64-.54-4.69-1.62-6.09-3.21-1.41-1.6-2.16-3.91-2.25-6.87-.12-3.8.99-7.85,3.3-12.04,2.29-4.16,5.17-7.72,8.55-10.58,3.42-2.9,6.63-4.41,9.53-4.49h.34c1.83,0,3.46.44,4.84,1.31,1.53.97,2.32,2.13,2.36,3.46.02.66-.26,1.47-.86,2.48-.57.94-1.63,2.33-3.25,4.23-3.88,4.85-6.92,9.12-9.03,12.67-2.07,3.48-3.1,5.94-3.06,7.29,0,.23.02.58.91.58,1.54-.04,3.77-.63,6.73-1.74,2.99-1.12,6.3-2.77,9.85-4.91,2.98-1.77,6.56-4.22,10.64-7.29,1.38-1.06,2.41-1.83,3.08-2.27.75-.5,1.3-.74,1.73-.75h0c.87,0,1.36.45,1.38,1.2.02.62-.52,1.7-7.15,6.76-4.65,3.54-9.78,6.83-15.25,9.78-5.52,2.98-10.04,4.53-13.45,4.63-.14,0-.27,0-.41,0ZM466.37,72.89c-.38,0-.8-.03-1.25-.09-.9-.16-1.72-.57-2.45-1.23-.77-.69-1.17-1.42-1.19-2.16-.04-1.31.68-3.05,2.2-5.3,1.17-1.79,2.39-3.08,3.61-3.85,1.24-.77,2.71-1.19,4.35-1.24.13,0,.26,0,.39,0,1.61,0,2.98.3,4.09.9,1.29.69,1.96,1.65,2,2.84.03.9-.61,2.12-2,3.82-1.3,1.59-2.87,3.04-4.64,4.3-1.82,1.29-3.47,1.97-4.9,2.01h-.21Z"/>
        <path class="cls-1" d="M472.03,59.55c1.53,0,2.81.28,3.84.84,1.12.6,1.69,1.4,1.72,2.39.02.75-.6,1.91-1.88,3.47-1.28,1.56-2.79,2.96-4.54,4.2-1.75,1.24-3.28,1.88-4.61,1.91-.06,0-.13,0-.19,0-.36,0-.75-.03-1.18-.08-.78-.14-1.5-.5-2.16-1.1-.66-.6-1-1.19-1.02-1.78-.04-1.19.67-2.85,2.11-4.99,1.14-1.74,2.29-2.97,3.46-3.69,1.17-.73,2.53-1.11,4.08-1.16.13,0,.25,0,.37,0M459.38,73.87c1.74,0,3.26.41,4.55,1.23,1.38.87,2.08,1.88,2.12,3.03.02.55-.25,1.28-.79,2.19-.54.91-1.61,2.29-3.2,4.16-3.92,4.91-6.95,9.15-9.08,12.74-2.13,3.59-3.17,6.11-3.13,7.58.02.72.5,1.09,1.43,1.09.04,0,.07,0,.11,0,1.51-.04,3.78-.63,6.81-1.77,3.03-1.14,6.34-2.79,9.94-4.95,3.01-1.79,6.57-4.23,10.69-7.32,1.38-1.07,2.4-1.82,3.05-2.26.65-.43,1.14-.66,1.46-.67.02,0,.03,0,.05,0,.51,0,.78.23.79.69.02.67-2.29,2.78-6.94,6.32-4.65,3.54-9.71,6.78-15.18,9.73-5.47,2.95-9.87,4.47-13.21,4.57-.13,0-.26,0-.39,0-.82,0-1.61-.07-2.36-.22-2.53-.52-4.46-1.54-5.79-3.04s-2.04-3.69-2.12-6.54c-.12-3.72.96-7.64,3.24-11.77,2.28-4.13,5.08-7.6,8.43-10.43s6.41-4.28,9.2-4.36c.11,0,.22,0,.32,0M472.03,58.49c-.13,0-.27,0-.4,0-1.74.05-3.29.49-4.61,1.32-1.31.82-2.55,2.13-3.78,4.01-1.58,2.34-2.33,4.18-2.28,5.6.03.89.49,1.74,1.36,2.54.81.73,1.71,1.18,2.69,1.35.52.07.96.1,1.36.1.08,0,.15,0,.22,0,1.55-.04,3.25-.73,5.19-2.11,1.81-1.29,3.41-2.76,4.74-4.39,1.48-1.81,2.15-3.13,2.12-4.17-.03-.95-.45-2.3-2.28-3.28-1.18-.64-2.65-.96-4.34-.96h0ZM459.38,72.82c-.12,0-.23,0-.35,0-3.02.09-6.34,1.64-9.85,4.61-3.43,2.9-6.35,6.51-8.67,10.73-2.36,4.27-3.49,8.42-3.37,12.31.1,3.09.9,5.51,2.39,7.2,1.48,1.68,3.62,2.81,6.37,3.38.83.16,1.69.25,2.57.25.14,0,.28,0,.42,0,3.54-.1,8.01-1.64,13.68-4.69,5.49-2.96,10.64-6.26,15.32-9.82,7.41-5.64,7.38-6.5,7.36-7.19-.03-1.04-.76-1.71-1.85-1.71h-.08c-.54.02-1.16.28-2.01.84-.67.45-1.72,1.22-3.11,2.3-4.05,3.04-7.62,5.48-10.58,7.25-3.53,2.12-6.81,3.76-9.77,4.87-2.91,1.09-5.08,1.66-6.47,1.7h-.08c-.2,0-.32-.02-.38-.04,0,0,0-.01,0-.02-.03-.86.47-2.78,2.98-7.01,2.1-3.53,5.12-7.77,9-12.62,1.62-1.9,2.7-3.31,3.28-4.28.66-1.1.96-2,.94-2.77-.05-1.51-.92-2.82-2.61-3.89-1.46-.93-3.19-1.4-5.12-1.4h0Z"/>
      </g>
      <g>
        <path class="cls-9" d="M478.61,109.26c-3.66,0-4.49-2.12-4.55-3.9-.11-3.53,1.97-9.14,6.37-17.15,4.3-7.84,11.52-18.74,21.45-32.4,9.96-14.02,19.15-25.72,27.31-34.76,1.65-1.81,2.99-3,4.1-3.64,1.13-.65,2.57-1,4.3-1.05.13,0,.26,0,.39,0,1.94,0,3.59.43,4.89,1.29,1.45.95,2.21,2.12,2.26,3.49.05,1.49-1.42,5.36-14.63,21.74-6.38,8.1-12.59,16.12-18.44,23.81-4.23,5.57-7.28,9.67-9.1,12.26,9.18-7.37,17.04-11.2,23.38-11.38.21,0,.42,0,.62,0,3.81,0,6.92,1.05,9.24,3.11,2.46,2.18,3.75,5.04,3.86,8.5.07,2.19-.52,5.26-1.74,9.14,0,.02-.02.05-.03.07,2.21-.07,4.65-.18,7.26-.33,2.32-.15,4-.23,5.16-.27.44-.01.84-.02,1.2-.02.79,0,1.36.03,1.75.09.77.12,1.21.44,1.31.96.04.98-1.22,1.31-3.11,1.53-1.78.21-5.52.52-11.12.91-1.64.12-2.96.21-3.94.28-1.96,2.54-3.74,4.68-5.28,6.36-1.59,1.73-3.42,3.34-5.46,4.8-5.8,4.05-12.32,6.21-19.39,6.41-.25,0-.5.01-.74.01-3.41,0-6.18-.71-8.24-2.11-2.26-1.54-3.45-3.51-3.52-5.85-.08-2.73.84-4.9,2.76-6.44,1.84-1.48,4.72-2.64,8.56-3.43,3.73-.77,9.09-1.46,15.93-2.05,1.82-2.99,3.12-5.5,3.87-7.44.75-1.95,1.11-3.86,1.05-5.68-.03-1.1-.3-1.88-.79-2.29-.47-.4-1.18-.6-2.09-.6h-.19c-2.61.08-5.8,1.07-9.5,2.96-3.72,1.9-7.9,4.93-12.41,9.01-4.51,4.09-9.09,9.33-13.62,15.58-1.93,2.67-3.42,4.61-4.42,5.75-1.05,1.2-1.83,1.93-2.38,2.23-.57.31-1.27.48-2.08.5h-.29ZM518.67,92.38c-1.52.04-3.86.31-6.95.79-3.08.48-5.29.94-6.57,1.36-1.42.49-2.63,1.16-3.6,2-.89.77-1.33,1.51-1.31,2.21.03.83.4,1.5,1.13,2.05.74.55,1.57.82,2.54.82h.15c1.03-.03,2.4-.42,4.09-1.15,1.72-.75,3.22-1.54,4.44-2.34.95-.64,2.32-1.82,4.07-3.5,1.21-1.17,1.84-1.85,2.17-2.23h-.17Z"/>
        <path class="cls-1" d="M537.99,16.9c1.84,0,3.38.4,4.6,1.2,1.31.85,1.98,1.87,2.02,3.06.07,2.18-4.77,9.31-14.51,21.39-6.39,8.11-12.54,16.05-18.45,23.82-5.91,7.78-9.48,12.65-10.7,14.63v.06c.18,0,.88-.5,2.08-1.49,9.24-7.47,17.02-11.3,23.33-11.48.2,0,.41,0,.61,0,3.69,0,6.66.99,8.89,2.98,2.35,2.09,3.58,4.8,3.68,8.13.07,2.14-.51,5.13-1.71,8.96-.17.48-.25.74-.25.78,2.42-.07,5.1-.19,8.02-.35,2.28-.14,4-.23,5.14-.27.44-.01.83-.02,1.18-.02.75,0,1.31.03,1.67.09.53.08.82.26.87.54.01.4-.87.7-2.65.91-1.78.21-5.48.51-11.09.91-1.78.13-3.17.23-4.18.3-2.02,2.63-3.82,4.8-5.39,6.51-1.57,1.71-3.37,3.29-5.38,4.73-5.73,4.01-12.1,6.11-19.09,6.31-.25,0-.49.01-.73.01-3.32,0-5.96-.67-7.95-2.02-2.13-1.44-3.22-3.26-3.29-5.43-.08-2.57.77-4.58,2.56-6.02,1.79-1.44,4.57-2.55,8.34-3.33,3.77-.78,9.15-1.47,16.14-2.07,1.92-3.14,3.27-5.73,4.05-7.75.78-2.02,1.15-3.98,1.09-5.88-.04-1.27-.37-2.16-.98-2.68-.57-.49-1.39-.73-2.43-.73-.07,0-.13,0-.2,0-2.7.08-5.94,1.08-9.72,3.01-3.78,1.93-7.96,4.96-12.52,9.09-4.56,4.13-9.13,9.35-13.69,15.66-1.93,2.67-3.39,4.57-4.39,5.71s-1.74,1.84-2.23,2.11c-.5.27-1.11.42-1.84.44-.09,0-.18,0-.27,0-2.61,0-3.95-1.13-4.02-3.39-.11-3.4,2-9.03,6.31-16.88,4.31-7.85,11.45-18.63,21.41-32.35,10-14.07,19.09-25.64,27.28-34.71,1.59-1.75,2.92-2.93,3.98-3.53,1.06-.6,2.41-.93,4.05-.98.13,0,.25,0,.38,0M503.91,102.13c.05,0,.11,0,.16,0,1.1-.03,2.53-.43,4.29-1.19,1.76-.76,3.27-1.56,4.53-2.39.99-.66,2.37-1.85,4.15-3.57,1.78-1.71,2.66-2.71,2.65-2.99,0-.1-.26-.15-.76-.15-.08,0-.17,0-.27,0-1.55.04-3.89.31-7.01.79-3.12.49-5.34.94-6.65,1.38-1.49.52-2.75,1.22-3.78,2.1-1.03.88-1.52,1.76-1.5,2.63.03.99.48,1.81,1.35,2.46.83.62,1.78.93,2.85.93M537.99,15.84c-.13,0-.27,0-.41,0-1.82.05-3.35.43-4.55,1.12-1.16.67-2.55,1.89-4.23,3.74-8.17,9.06-17.38,20.77-27.36,34.81-9.93,13.67-17.16,24.59-21.48,32.45-4.44,8.09-6.55,13.79-6.44,17.42.05,1.65.78,4.41,5.08,4.41.1,0,.2,0,.3,0,.9-.03,1.68-.22,2.32-.57.62-.34,1.42-1.08,2.52-2.35,1.02-1.17,2.47-3.06,4.45-5.79,4.5-6.22,9.06-11.44,13.54-15.5,4.47-4.05,8.61-7.06,12.29-8.94,3.63-1.85,6.75-2.82,9.27-2.9h.17c.78,0,1.37.16,1.75.48.46.39.58,1.25.6,1.9.05,1.75-.29,3.59-1.02,5.47-.72,1.86-1.96,4.26-3.69,7.13-6.74.59-12.03,1.27-15.73,2.04-3.98.82-6.85,1.98-8.79,3.54-2.05,1.65-3.04,3.96-2.95,6.87.08,2.52,1.34,4.64,3.75,6.27,2.15,1.46,5.03,2.2,8.54,2.2.25,0,.5,0,.76-.01,7.17-.2,13.79-2.39,19.67-6.5,2.07-1.49,3.94-3.13,5.55-4.88,1.51-1.65,3.25-3.73,5.16-6.21.95-.07,2.19-.15,3.71-.27,5.6-.4,9.35-.71,11.14-.92,1.36-.16,3.63-.43,3.58-1.99v-.09s-.02-.08-.02-.08c-.08-.42-.42-1.17-1.75-1.38-.42-.07-1.02-.1-1.84-.1-.36,0-.76,0-1.21.02-1.15.03-2.89.12-5.18.27-2.31.13-4.49.23-6.5.3,1.12-3.69,1.63-6.52,1.56-8.67-.11-3.61-1.47-6.6-4.04-8.88-2.42-2.15-5.65-3.24-9.59-3.24-.21,0-.42,0-.64,0-5.77.16-12.76,3.28-20.8,9.26,1.76-2.41,4.09-5.51,6.96-9.28,5.86-7.7,12.06-15.71,18.44-23.81,13.16-16.33,14.79-20.38,14.74-22.08-.05-1.55-.89-2.86-2.49-3.91-1.39-.91-3.14-1.37-5.18-1.37h0ZM503.91,101.08c-.85,0-1.57-.23-2.22-.72-.61-.46-.9-.98-.92-1.64-.02-.53.36-1.14,1.13-1.79.92-.79,2.08-1.43,3.44-1.9,1.24-.41,3.42-.86,6.47-1.33,2.39-.37,4.32-.61,5.77-.72-.32.33-.74.75-1.27,1.26-1.72,1.66-3.07,2.82-4,3.45-1.19.79-2.66,1.56-4.36,2.3-1.63.71-2.94,1.08-3.9,1.11h-.13Z"/>
      </g>
      <g>
        <path class="cls-8" d="M552,107.82c-.7,0-1.43-.13-2.17-.39-2.81-.99-4.28-3.04-4.37-6.07-.09-2.95,1.18-6.45,3.79-10.4,2.57-3.89,7.12-8.91,13.52-14.92,2.3-2.16,4.02-3.7,5.11-4.57,1.13-.91,2.12-1.51,3.02-1.83.89-.32,2.08-.5,3.55-.54.15,0,.31,0,.46,0,2.27,0,4.17.51,5.63,1.51,1.61,1.1,2.46,2.51,2.51,4.19.04,1.15-.41,2.44-1.38,3.96-.67,1.07-1.75,2.44-3.22,4.11,1.88-.98,4.11-1.97,6.66-2.95,3.25-1.25,5.35-1.88,6.43-1.91h.15c1.15,0,2.3.38,3.42,1.13,1.22.82,1.86,1.84,1.89,3.05.06,1.82-1.18,4.74-3.8,8.9-.73,1.1-.82,1.64-.81,1.87.02.52.64.78,1.86.78h.25c2.16-.07,4.94-.81,8.25-2.22,3.36-1.43,6.93-3.11,10.59-4.98,1.87-.94,1.9-.94,2.06-.94h0c1.22,0,1.55.68,1.64,1.09v.05s.01.05.01.05c.01.4-.17.84-2.61,2.48-1.6,1.08-3.62,2.25-6.02,3.47-2.4,1.22-4.96,2.3-7.59,3.19-2.66.9-5.1,1.39-7.25,1.45-.21,0-.42,0-.62,0-2.97,0-5.41-.64-7.26-1.9-2.03-1.39-3.1-3.38-3.18-5.92-.06-1.76.65-3.81,2.1-6.11-.65.32-1.66.88-3.22,1.87-2.44,1.54-5.46,3.7-8.99,6.44-3.53,2.74-7.22,5.88-10.97,9.32-6.89,6.21-7.47,6.41-7.74,6.51-.57.15-1.07.23-1.52.25h-.16Z"/>
        <path class="cls-1" d="M574.91,69.63c2.17,0,3.95.47,5.33,1.42,1.47,1.01,2.23,2.26,2.28,3.77.03,1.03-.4,2.25-1.29,3.66-.89,1.41-2.49,3.36-4.8,5.84-.13.12-.2.2-.2.24h.07c.14,0,.5-.17,1.08-.51,2.11-1.21,4.75-2.42,7.92-3.64,3.16-1.22,5.25-1.84,6.26-1.87.05,0,.09,0,.14,0,1.05,0,2.09.35,3.12,1.04,1.07.72,1.63,1.6,1.66,2.63.05,1.7-1.19,4.57-3.72,8.6-.61.93-.91,1.65-.89,2.16.03.86.82,1.3,2.39,1.3.09,0,.17,0,.26,0,2.24-.06,5.05-.82,8.44-2.26,3.39-1.44,6.93-3.11,10.62-5,1.17-.59,1.78-.88,1.83-.88.02,0,.05,0,.07,0,.6,0,.95.23,1.05.68,0,.28-.78.95-2.37,2.03-1.59,1.08-3.58,2.22-5.97,3.44-2.39,1.22-4.9,2.27-7.52,3.16-2.63.89-4.99,1.36-7.1,1.42-.21,0-.41,0-.61,0-2.87,0-5.19-.6-6.96-1.81-1.89-1.29-2.88-3.13-2.95-5.5-.06-1.78.73-3.88,2.34-6.31.26-.4.39-.63.39-.66l-.07-.06c-.59.02-2.13.8-4.59,2.36-2.47,1.56-5.48,3.71-9.03,6.47-3.55,2.76-7.22,5.87-11,9.35-4.54,4.09-7.06,6.22-7.56,6.4-.5.13-.95.21-1.37.22-.05,0-.1,0-.15,0-.64,0-1.31-.12-1.99-.36-2.59-.92-3.93-2.78-4.02-5.59-.09-2.85,1.15-6.21,3.7-10.09s7.04-8.82,13.44-14.82c2.31-2.17,4-3.68,5.08-4.54,1.07-.86,2.03-1.44,2.86-1.75.84-.3,1.96-.47,3.38-.51.15,0,.3,0,.44,0M574.91,68.57c-.16,0-.31,0-.47,0-1.54.04-2.76.23-3.71.57-.96.34-1.99.97-3.17,1.92-1.09.88-2.82,2.43-5.14,4.59-6.43,6.04-11.01,11.09-13.6,15.01-2.67,4.04-3.97,7.65-3.88,10.7.1,3.23,1.73,5.5,4.72,6.55.8.28,1.59.42,2.34.42.06,0,.12,0,.18,0,.49-.01,1.03-.1,1.61-.25h.04s.04-.02.04-.02c.38-.13.95-.33,7.92-6.61,3.75-3.44,7.42-6.57,10.94-9.3,3.51-2.72,6.52-4.88,8.95-6.41.6-.38,1.11-.69,1.55-.95-.88,1.74-1.29,3.31-1.24,4.76.08,2.72,1.23,4.85,3.41,6.34,1.94,1.33,4.48,2,7.56,2,.21,0,.42,0,.64,0,2.2-.06,4.69-.56,7.4-1.48,2.66-.9,5.24-1.98,7.66-3.22,2.42-1.23,4.46-2.41,6.08-3.51,2.47-1.67,2.86-2.23,2.84-2.94v-.1s-.03-.1-.03-.1c-.21-.94-.99-1.5-2.08-1.5h-.1c-.28,0-.3.01-2.27,1-3.66,1.87-7.21,3.54-10.56,4.97-3.25,1.39-5.96,2.12-8.06,2.18-.08,0-.16,0-.23,0-1.1,0-1.33-.24-1.33-.24,0-.1.02-.52.72-1.58,2.68-4.28,3.95-7.29,3.89-9.22-.04-1.38-.76-2.55-2.13-3.47-1.2-.81-2.45-1.22-3.71-1.22h-.17c-.73.02-2.2.25-6.61,1.95-1.61.62-3.09,1.24-4.44,1.86.68-.85,1.23-1.6,1.64-2.25,1.02-1.61,1.5-3,1.46-4.26-.06-1.85-.98-3.4-2.74-4.61-1.55-1.06-3.55-1.6-5.93-1.6h0Z"/>
      </g>
      <g>
        <path class="cls-5" d="M619.82,105.88c-1.66,0-3.38-.39-5.1-1.15-1.85-.82-3.42-2.16-4.66-3.98-1.25-1.82-1.93-4.16-2.01-6.94-.14-4.4,1.08-8.78,3.63-13.02,2.54-4.23,6.07-7.76,10.5-10.52,4.44-2.76,9.34-4.25,14.57-4.44l1.35-.1c.27,0,.52-.01.75-.01,1.42,0,2.66.13,3.68.38,1.17.29,2.67.79,4.44,1.5.24.09.44.17.62.24,1.37-.97,2.59-1.67,3.63-2.09,1.11-.45,2.59-.7,4.38-.75.16,0,.31,0,.47,0,2.27,0,4.2.49,5.74,1.46,1.71,1.08,2.61,2.54,2.67,4.34.02.73-.29,1.75-.96,3.12-.63,1.29-1.59,3.13-2.96,5.63-2.14,3.98-3.83,7.38-5.02,10.09-1.16,2.64-1.72,4.94-1.66,6.83.03.9.19,1.64.49,2.18.26.48.61.74,1.09.82l.52-.02c.4.02.71.03.98.03h.26c1.62-.05,3.24-.39,4.8-1,1.58-.62,3.56-1.76,5.89-3.38,2.35-1.63,5.47-4.07,9.28-7.25,4.78-4.06,6-4.62,6.57-4.64h.11c1.14.05,1.33.62,1.34.96.02.56-.37,1.44-3.28,4.12-4.39,4.08-8.2,7.32-11.31,9.63-3.13,2.33-6.09,4.03-8.79,5.07-1.38.52-2.42.86-3.11,1-.7.15-1.92.24-3.76.29-.69.02-1.3.03-1.82.03-.85,0-1.47-.03-1.87-.08-.66-.09-1.55-.33-2.71-.76-4.69-1.83-7.78-5.14-9.2-9.84-.04-.13-.13-.35-.27-.63-.08-.19-.14-.34-.19-.46-.12.15-.29.35-.5.61-2.12,2.6-4.43,5.08-6.86,7.35-2.47,2.31-5.19,3.92-8.06,4.77-1.38.37-2.47.56-3.34.59h-.31ZM642.52,75.17c-1.17.03-2.72.41-4.6,1.11-2.59,1.21-5.25,3.3-7.87,6.18-2.63,2.9-4.81,5.98-6.46,9.17-1.63,3.14-2.44,5.63-2.38,7.39.04,1.29.52,1.29.72,1.29.27,0,.9-.14,2.45-.94,1.23-.63,2.77-1.69,4.58-3.14,1.83-1.46,4.11-3.65,6.78-6.5.05-.05.13-.13.27-.35,1.4-1.5,1.85-2.11,2-2.38.22-.4.54-1.19.95-2.35.98-2.89,2.21-6.15,3.65-9.67v-.34l-.08.53Z"/>
        <path class="cls-1" d="M656.07,65.52c2.17,0,3.99.46,5.46,1.38,1.56.99,2.37,2.29,2.42,3.91.02.63-.28,1.59-.91,2.88-.62,1.29-1.61,3.16-2.95,5.61-2.16,4.02-3.85,7.4-5.04,10.13-1.2,2.73-1.76,5.08-1.7,7.06.03.99.22,1.8.56,2.42.34.62.83.99,1.48,1.09.09,0,.3,0,.62-.02.37.02.69.03.96.03.1,0,.19,0,.28,0,1.69-.05,3.35-.39,4.98-1.03,1.63-.64,3.63-1.79,6-3.44,2.37-1.65,5.48-4.08,9.32-7.28,3.52-2.99,5.6-4.5,6.24-4.52h.07c.55.02.83.17.84.45.02.55-1.02,1.79-3.11,3.71-4.4,4.09-8.16,7.29-11.27,9.59-3.11,2.31-6,3.97-8.67,5-1.36.51-2.37.84-3.02.98-.66.14-1.88.23-3.66.28-.69.02-1.29.03-1.8.03-.82,0-1.42-.02-1.8-.07-.62-.08-1.49-.32-2.6-.73-4.54-1.77-7.5-4.94-8.87-9.49-.05-.16-.15-.39-.3-.7-.3-.74-.49-1.11-.58-1.11h0s-.38.39-.99,1.16c-2.12,2.6-4.39,5.03-6.81,7.3-2.42,2.27-5.04,3.82-7.85,4.65-1.32.35-2.39.54-3.21.57-.1,0-.2,0-.3,0-1.6,0-3.23-.37-4.89-1.1-1.76-.78-3.24-2.05-4.44-3.8-1.2-1.75-1.84-3.97-1.92-6.66-.13-4.31,1.05-8.56,3.55-12.73,2.5-4.17,5.94-7.62,10.32-10.34,4.38-2.72,9.15-4.17,14.32-4.36l1.37-.1c.25,0,.49-.01.72-.01,1.38,0,2.56.12,3.55.36,1.15.28,2.61.78,4.37,1.48.37.15.67.26.9.33,1.43-1.03,2.68-1.76,3.74-2.19,1.06-.43,2.46-.66,4.2-.71.15,0,.3,0,.45,0M621.92,100.84s.03,0,.05,0c.5-.01,1.39-.35,2.65-1,1.26-.65,2.82-1.71,4.67-3.19,1.85-1.48,4.13-3.66,6.83-6.55.09-.08.2-.22.33-.43,1.11-1.18,1.78-1.98,2.02-2.41.24-.42.57-1.23.99-2.44,1.01-2.96,2.25-6.26,3.74-9.91v-.06c0-.15-.2-.22-.59-.22-.03,0-.07,0-.1,0-1.23.04-2.83.42-4.77,1.15-2.71,1.27-5.4,3.37-8.08,6.32-2.68,2.95-4.86,6.04-6.54,9.28s-2.5,5.79-2.44,7.65c.04,1.2.45,1.81,1.25,1.81M656.07,64.47c-.16,0-.32,0-.48,0-1.88.05-3.37.31-4.56.79-1.02.41-2.2,1.08-3.51,1.99-.11-.04-.22-.09-.35-.13-1.8-.72-3.32-1.23-4.51-1.52-1.06-.26-2.34-.39-3.8-.39-.24,0-.49,0-.75.01l-1.42.1c-5.29.19-10.28,1.71-14.8,4.52-4.5,2.8-8.09,6.39-10.67,10.69-2.6,4.33-3.84,8.8-3.7,13.31.09,2.88.8,5.32,2.11,7.22,1.3,1.9,2.95,3.31,4.89,4.16,1.79.79,3.58,1.19,5.31,1.19.11,0,.22,0,.33,0,.91-.03,2.04-.22,3.45-.6,2.98-.88,5.77-2.53,8.3-4.9,2.43-2.27,4.74-4.74,6.86-7.34.06.14.09.22.1.25,1.46,4.84,4.66,8.27,9.5,10.15,1.22.44,2.14.7,2.84.79.43.06,1.07.08,1.94.08.52,0,1.13,0,1.83-.03,1.86-.05,3.12-.15,3.85-.3.72-.15,1.76-.49,3.18-1.02,2.75-1.06,5.75-2.79,8.92-5.14,3.13-2.32,6.95-5.57,11.36-9.67,2.91-2.67,3.47-3.71,3.45-4.52-.01-.33-.17-1.4-1.85-1.47h-.04s-.04,0-.04,0h-.07c-.67.02-1.76.41-6.9,4.77-3.79,3.16-6.9,5.59-9.24,7.22-2.3,1.6-4.25,2.72-5.79,3.32-1.51.59-3.06.92-4.62.96-.08,0-.16,0-.25,0-.26,0-.56,0-.91-.03h-.04s-.04,0-.04,0h-.51c-.2-.03-.43-.15-.63-.52-.26-.48-.4-1.13-.43-1.95-.06-1.81.49-4.03,1.62-6.6,1.18-2.69,2.86-6.07,5-10.05,1.37-2.5,2.34-4.35,2.97-5.65.72-1.48,1.04-2.55,1.01-3.37-.06-1.99-1.04-3.59-2.91-4.77-1.63-1.03-3.65-1.55-6.02-1.55h0ZM638.15,76.76c1.39-.52,2.59-.85,3.57-.99-1.27,3.16-2.36,6.08-3.26,8.72-.49,1.4-.77,2-.91,2.26-.11.19-.5.74-1.87,2.2l-.06.07-.05.08c-.11.17-.16.23-.17.23l-.03.03-.02.02c-2.65,2.84-4.91,5.01-6.72,6.45-1.79,1.43-3.3,2.46-4.5,3.08-1.6.82-2.11.88-2.19.88l-.02,1.06v-1.06s-.05,0-.06,0c0,0-.11-.19-.13-.78-.05-1.67.73-4.07,2.32-7.13,1.64-3.14,3.79-6.19,6.39-9.06,2.56-2.82,5.15-4.86,7.7-6.06h0Z"/>
      </g>
      <g>
        <path class="cls-6" d="M676.8,104.02c-1.41,0-2.72-.35-3.87-1.04-1.3-.78-1.98-1.81-2.02-3.06-.04-1.23.65-2.92,2.09-5.17,1.38-2.14,3.63-5.35,6.69-9.55,3.25-4.44,5.62-7.75,7.23-10.12,3.57-5.12,4.56-6.23,4.97-6.54.76-.77,1.79-1.4,3.06-1.87,1.27-.47,2.63-.73,4.06-.77.14,0,.29,0,.43,0,2.15,0,4.1.48,5.79,1.42,1.89,1.05,2.88,2.55,2.93,4.44.03.85-.12,1.75-.43,2.66-.26.78-.73,1.88-1.37,3.28.5-.36,1.08-.79,1.74-1.27,3.62-2.68,6.71-4.74,9.17-6.12,2.51-1.41,4.96-2.16,7.28-2.23h.34c2.21,0,4.2.63,5.91,1.89,1.84,1.35,2.81,3.23,2.88,5.56.05,1.46-.18,3.13-.66,4.95-.47,1.77-1.18,4.05-2.1,6.78-.7,2.16-1.23,3.9-1.58,5.16-.33,1.2-.49,2.22-.47,3.03.03,1.01.4,2.35,3.25,2.35h.27c1.77-.05,3.92-.51,6.39-1.35,2.49-.85,4.82-1.94,6.93-3.24.91-.6,3.04-2.21,6.33-4.78,2.4-1.92,4.3-3.39,5.65-4.36,1.89-1.37,2.51-1.56,2.86-1.57h0c.84,0,1.24.38,1.44.7l.07.12v.14c.02.37.03.78-5.36,5.67-3.48,3.15-6.18,5.38-8.02,6.63-3.26,2.09-6.64,3.77-10.05,5.01-3.43,1.24-6.63,1.91-9.51,1.99-.19,0-.38,0-.57,0-.97,0-1.9-.07-2.77-.22-3.6-.59-6.54-2.14-8.75-4.59-2.21-2.46-3.38-5.19-3.46-8.12-.05-1.52.3-3.51,1.05-5.93.68-2.23,1.9-5.43,3.63-9.52-1.18.41-3.54,1.73-8.22,5.17-4.84,3.56-11.11,8.81-18.63,15.59-3.48,3.12-6.32,5.38-8.45,6.71-2.18,1.37-4.17,2.09-5.9,2.14h-.25Z"/>
        <path class="cls-1" d="M699.44,66.42c2.07,0,3.91.45,5.53,1.35,1.72.96,2.61,2.29,2.66,3.99.02.79-.11,1.62-.4,2.48-.29.86-.83,2.11-1.6,3.76-.26.56-.45.98-.58,1.26.72-.5,1.84-1.3,3.36-2.41,3.62-2.68,6.66-4.71,9.11-6.08,2.45-1.38,4.8-2.1,7.04-2.16.11,0,.22,0,.32,0,2.11,0,3.97.6,5.6,1.8,1.71,1.26,2.6,2.98,2.66,5.15.04,1.42-.17,3.03-.64,4.8-.47,1.78-1.17,4.02-2.09,6.75-.71,2.2-1.24,3.93-1.59,5.19-.35,1.26-.51,2.32-.48,3.19.06,1.91,1.32,2.86,3.78,2.86.09,0,.19,0,.29,0,1.83-.05,4.01-.51,6.55-1.38,2.54-.86,4.88-1.96,7.04-3.29.94-.62,3.07-2.23,6.37-4.82,2.41-1.93,4.29-3.38,5.63-4.35s2.2-1.46,2.56-1.47c.02,0,.04,0,.05,0,.43,0,.74.15.92.45.01.36-1.72,2.11-5.19,5.26-3.47,3.15-6.13,5.35-7.97,6.59-3.23,2.07-6.54,3.72-9.94,4.95-3.39,1.23-6.51,1.88-9.34,1.96-.18,0-.37,0-.55,0-.94,0-1.84-.07-2.68-.21-3.5-.57-6.31-2.05-8.44-4.42s-3.24-4.97-3.33-7.78c-.05-1.46.3-3.39,1.02-5.76.73-2.38,2.05-5.81,3.97-10.31l-.14-.06c-1.28.04-4.36,1.85-9.24,5.43-4.88,3.59-11.1,8.8-18.67,15.63-3.47,3.11-6.27,5.33-8.37,6.66-2.11,1.33-3.99,2.02-5.63,2.06-.08,0-.16,0-.24,0-1.32,0-2.52-.32-3.6-.96-1.14-.68-1.73-1.56-1.76-2.62-.03-1.11.64-2.73,2.01-4.87,1.38-2.14,3.6-5.31,6.67-9.52,3.2-4.37,5.62-7.75,7.24-10.13,2.76-3.96,4.39-6.11,4.88-6.44.71-.73,1.68-1.33,2.9-1.78,1.22-.45,2.52-.7,3.89-.74.14,0,.28,0,.42,0M699.44,65.37c-.15,0-.3,0-.45,0-1.48.04-2.9.31-4.23.8-1.33.49-2.41,1.15-3.22,1.96-.36.27-1.2,1.1-5.06,6.64-1.6,2.35-4.03,5.75-7.22,10.11-3.08,4.22-5.34,7.44-6.71,9.57-1.51,2.34-2.22,4.14-2.18,5.47.03,1,.45,2.41,2.28,3.5,1.24.74,2.63,1.11,4.14,1.11.09,0,.18,0,.27,0,1.83-.05,3.9-.8,6.17-2.22,2.15-1.35,5.02-3.63,8.52-6.76,7.51-6.78,13.76-12.02,18.59-15.56,3.5-2.58,5.62-3.9,6.9-4.57-1.47,3.52-2.52,6.32-3.13,8.33-.77,2.51-1.12,4.51-1.07,6.11.09,3.05,1.31,5.9,3.6,8.45,2.29,2.55,5.34,4.15,9.06,4.76.9.15,1.86.23,2.85.23.19,0,.38,0,.58,0,2.93-.08,6.19-.76,9.67-2.02,3.45-1.25,6.87-2.95,10.15-5.05,1.89-1.28,4.61-3.52,8.1-6.69,5.57-5.05,5.56-5.46,5.54-6.07v-.28s-.16-.24-.16-.24c-.38-.61-1.02-.95-1.82-.95h-.08c-.54.02-1.25.3-3.15,1.67-1.35.98-3.26,2.45-5.67,4.38-3.27,2.56-5.39,4.16-6.29,4.76-2.05,1.26-4.35,2.34-6.8,3.17-2.42.83-4.52,1.27-6.24,1.32-.09,0-.17,0-.26,0-2.67,0-2.71-1.19-2.73-1.84-.02-.76.13-1.73.45-2.88.34-1.24.87-2.97,1.58-5.14.92-2.73,1.64-5.02,2.11-6.8.5-1.87.72-3.59.68-5.11-.08-2.51-1.12-4.52-3.09-5.97-1.81-1.33-3.9-2-6.23-2-.12,0-.24,0-.35,0-2.4.07-4.93.84-7.53,2.3-2.48,1.39-5.58,3.46-9.22,6.16-.05.04-.1.07-.14.1.25-.59.45-1.1.59-1.53.33-.98.49-1.94.46-2.85-.06-2.09-1.14-3.73-3.2-4.88-1.77-.99-3.8-1.49-6.04-1.49h0Z"/>
      </g>
      <g>
        <path class="cls-4" d="M766.82,101.69c-.71,0-1.76-.23-3.2-.71-2.31-.68-4.1-1.88-5.31-3.59-1.22-1.71-1.88-4.48-2-8.47-.05-1.71-.03-3.03.06-3.91.09-.88.34-2.06.77-3.58,1.69-6.32,4.85-13.24,9.42-20.55,4.55-7.29,11.32-16.28,20.12-26.72.23-.25.62-.72,1.19-1.4,1.88-2.19,2.82-3.31,3.28-3.89-.11,0-.24,0-.38,0-.19,0-.4,0-.64,0-1.59.05-5.61.31-11.96.79-5.63.42-10.43.82-14.31,1.18.51.43.74.79.75,1.15.01.33-.1.63-.32.87-.37.39-1.01.59-2.01.62-.15,0-.3,0-.46,0-1.33,0-3.01-.15-5-.45-2.29-.35-3.77-.71-4.53-1.12-1.43-.77-2.17-1.72-2.2-2.83-.04-1.14.65-2.03,2.03-2.66,1.24-.56,3.38-1.02,6.56-1.41,3.09-.38,7.3-.78,12.52-1.16,5.19-.38,13.77-.95,25.52-1.67.47-.52,1.08-1.23,1.83-2.14,3.33-3.8,5.55-6.29,6.79-7.62,1.29-1.38,2.38-2.28,3.33-2.76.94-.47,2.11-.73,3.46-.77h.33c1.98,0,3.79.52,5.38,1.57,1.73,1.14,2.64,2.59,2.69,4.31.04,1.28-.7,3.5-2.25,6.78-.07.15-.13.27-.18.39.29.02.75.04,1.43.06.61.02,1.26.02,1.94.02.9,0,1.86-.01,2.88-.04h1.79c9.31,0,17.67.37,24.84,1.12,7.78.81,12.81,1.86,15.36,3.22.9.44,1.64,1.06,2.19,1.82.56.78.86,1.55.88,2.29.02.58-.13,1.04-.45,1.38-.34.36-.86.56-1.53.58h0c-.82,0-1.21-.31-1.4-.57-.24-.31-.41-.71-.54-1.22-.13-.43-.24-.53-.24-.54-2.17-.95-9.12-1.64-20.64-2.01-2.9-.11-6.86-.17-11.78-.17-1.11,0-2.27,0-3.48,0-6.44.03-11.7.1-15.63.21-1.79,2.15-6.17,7.23-13.04,15.12-9.58,11.03-15.73,18.2-18.28,21.31-3.44,4.41-6.64,8.9-9.5,13.33-2.85,4.42-4.83,7.93-5.88,10.45-1.23,3.46-1.82,6.17-1.76,8.03.03,1.1.23,1.53.34,1.69.12.18.56.61,2.06,1.55.3.24.59.53.61.9,0,.23-.1.43-.22.6-.03.11-.09.22-.17.31-.25.27-.64.31-.92.32h-.09Z"/>
        <path class="cls-1" d="M812.42,9.41c1.89,0,3.58.49,5.09,1.48,1.59,1.04,2.41,2.34,2.45,3.88.04,1.19-.7,3.37-2.2,6.54-.3.64-.45.98-.45,1.02,0,.08.73.14,2.17.18.62.02,1.26.02,1.94.02.91,0,1.87-.01,2.9-.04.6,0,1.19,0,1.78,0,9.33,0,17.6.37,24.79,1.12,7.64.79,12.7,1.85,15.17,3.16.84.41,1.51.97,2.01,1.67s.76,1.36.78,2c.03.91-.46,1.38-1.47,1.41-.02,0-.04,0-.07,0-.42,0-.73-.12-.91-.36-.19-.25-.34-.59-.44-1.03-.15-.51-.32-.8-.51-.88-2.27-1-9.23-1.7-20.86-2.08-2.92-.11-6.85-.17-11.8-.17-1.11,0-2.27,0-3.48,0-6.61.03-11.91.1-15.89.22-1.68,2.03-6.07,7.13-13.19,15.29-9.63,11.09-15.73,18.2-18.29,21.32-3.48,4.46-6.66,8.92-9.54,13.38-2.88,4.46-4.86,7.97-5.92,10.54-1.26,3.56-1.86,6.31-1.8,8.25.03.95.18,1.61.44,1.98.26.37,1,.93,2.21,1.69.23.19.35.35.36.47,0,.08-.06.2-.19.36,0,.2-.2.3-.61.31-.02,0-.05,0-.07,0-.65,0-1.66-.23-3.04-.68-2.22-.65-3.9-1.78-5.05-3.39s-1.78-4.34-1.9-8.18c-.05-1.7-.03-2.98.05-3.83s.34-2.02.75-3.5c1.68-6.31,4.8-13.11,9.36-20.41,4.56-7.3,11.25-16.19,20.08-26.66.22-.24.62-.71,1.19-1.4,2.52-2.92,3.78-4.45,3.77-4.56,0-.13-.43-.19-1.27-.19-.2,0-.41,0-.65.01-1.6.05-5.6.31-11.99.79-6.39.48-11.64.92-15.75,1.31.09.08.21.15.35.23.89.57,1.34,1.01,1.35,1.33.02.59-.59.91-1.82.94-.14,0-.29,0-.45,0-1.31,0-2.95-.15-4.92-.45-2.21-.33-3.66-.69-4.36-1.06-1.26-.68-1.9-1.47-1.93-2.38-.03-.91.54-1.63,1.72-2.16,1.17-.53,3.31-.99,6.41-1.37,3.1-.39,7.26-.77,12.49-1.16,5.23-.39,13.8-.95,25.72-1.69.49-.53,1.15-1.3,1.99-2.32,3.27-3.74,5.53-6.27,6.77-7.59,1.24-1.32,2.3-2.21,3.18-2.65s1.96-.68,3.24-.72c.1,0,.21,0,.31,0M812.42,8.36c-.11,0-.23,0-.34,0-1.43.04-2.67.32-3.68.83-1,.5-2.14,1.44-3.48,2.87-1.24,1.32-3.53,3.89-6.79,7.62-.69.83-1.25,1.49-1.69,1.98-11.65.72-20.16,1.28-25.31,1.66-5.22.39-9.44.78-12.54,1.16-3.23.4-5.43.88-6.71,1.46-1.99.9-2.37,2.21-2.34,3.15.04,1.31.88,2.41,2.48,3.28.82.44,2.32.82,4.7,1.18,2.02.3,3.73.46,5.08.46.16,0,.32,0,.48,0,1.15-.03,1.91-.28,2.38-.78.32-.34.48-.77.47-1.25,0-.24-.07-.47-.2-.7,3.67-.33,8.12-.69,13.27-1.08,6.19-.46,10.16-.73,11.82-.78-.54.65-1.35,1.6-2.55,3-.57.69-.96,1.15-1.17,1.38-8.85,10.49-15.63,19.5-20.19,26.81-4.59,7.36-7.78,14.32-9.48,20.7-.43,1.54-.69,2.75-.78,3.66-.09.9-.11,2.24-.06,3.97.13,4.09.81,6.95,2.1,8.76,1.28,1.8,3.17,3.08,5.61,3.79,1.47.49,2.57.73,3.33.73h.1c.21,0,.86-.03,1.29-.48.12-.13.21-.27.27-.43.15-.22.28-.51.27-.85-.02-.59-.43-1-.75-1.25l-.05-.04-.06-.04c-1.56-.98-1.87-1.34-1.91-1.41-.02-.03-.21-.33-.24-1.4-.06-1.79.53-4.43,1.73-7.84,1.04-2.49,2.99-5.97,5.82-10.35,2.85-4.41,6.04-8.89,9.49-13.3,2.52-3.08,8.67-10.25,18.25-21.28,6.68-7.66,11.01-12.68,12.9-14.94,3.9-.11,9.07-.17,15.38-.2,1.21,0,2.37,0,3.48,0,4.91,0,8.87.06,11.76.17,13.73.45,18.64,1.27,20.3,1.92.02.06.06.14.09.26.14.57.34,1.02.62,1.39.27.35.79.78,1.75.78h.1c.82-.02,1.45-.27,1.9-.74.29-.31.62-.86.6-1.76-.03-.84-.36-1.71-.98-2.58-.6-.84-1.41-1.51-2.4-2-2.58-1.38-7.67-2.45-15.52-3.27-7.19-.75-15.57-1.12-24.9-1.12-.59,0-1.18,0-1.78,0-1.03.03-2,.04-2.89.04-.67,0-1.31,0-1.91-.02-.24,0-.45-.01-.64-.02,1.5-3.22,2.19-5.35,2.15-6.7-.06-1.9-1.04-3.49-2.93-4.73-1.67-1.1-3.58-1.66-5.67-1.66h0Z"/>
      </g>
    </g>
  </g>
  <g>
    <polygon class="cls-13" points="0 2.93 65.57 2.93 49.82 19.97 27.44 19.33 0 2.93"/>
    <polygon class="cls-1" points="0 2.93 0 6.01 26.66 22.57 26.66 18.86 0 2.93"/>
    <polygon class="cls-28" points="26.66 18.86 49.18 19.33 124.71 155.56 124.71 192.58 26.66 22.57 26.66 18.86"/>
    <polygon class="cls-1" points="49.18 19.33 65.57 2.93 124.71 107.72 124.71 155.56 49.18 19.33"/>
    <polygon class="cls-1" points="26.66 18.86 124.71 188.1 124.71 192.58 26.66 22.57 26.66 18.86"/>
    <polygon class="cls-13" points="249.43 2.93 183.86 2.93 199.61 19.97 221.99 19.33 249.43 2.93"/>
    <polygon class="cls-1" points="249.43 2.93 249.43 6.01 222.77 22.57 222.77 18.86 249.43 2.93"/>
    <polygon class="cls-28" points="222.77 18.86 200.25 19.33 124.71 155.56 124.71 192.58 222.77 22.57 222.77 18.86"/>
    <polygon class="cls-1" points="200.25 19.33 183.86 2.93 124.71 107.72 124.71 155.56 200.25 19.33"/>
    <polygon class="cls-1" points="222.77 18.86 124.71 188.1 124.71 192.58 222.77 22.57 222.77 18.86"/>
    <path class="cls-3" d="M0,6.01l26.34,16.67,11.77,19.73S8.62,29.3,0,6.01Z"/>
    <path class="cls-7" d="M249.43,6.01l-26.34,16.67-11.77,19.73s29.48-13.11,38.1-36.4Z"/>
    <polygon class="cls-14" points="128.96 106.15 125.34 104.67 122.82 107.65 123.11 103.76 119.49 102.28 123.29 101.35 123.58 97.45 125.63 100.77 129.43 99.84 126.9 102.83 128.96 106.15"/>
    <circle class="cls-11" cx="125.24" cy="105.12" r="18.3"/>
    <polygon class="cls-15" points="122.96 102.27 126.75 102.27 124.86 59.59 122.96 102.27"/>
    <polygon class="cls-16" points="126.07 101.33 126.07 105.12 168.75 103.22 126.07 101.33"/>
    <polygon class="cls-17" points="122.6 101.33 122.6 105.12 79.92 103.22 122.6 101.33"/>
    <polygon class="cls-18" points="126.75 102.27 122.96 102.27 124.86 144.96 126.75 102.27"/>
    <polygon class="cls-20" points="126.07 101.51 127.36 102.58 140.86 87.22 126.07 101.51"/>
    <polygon class="cls-24" points="125.91 101.69 126.6 103.22 145.49 95.39 125.91 101.69"/>
    <polygon class="cls-25" points="125.39 105.61 126.68 104.54 140.18 119.9 125.39 105.61"/>
    <polygon class="cls-26" points="125.24 105.43 125.92 103.9 144.81 111.73 125.24 105.43"/>
    <polygon class="cls-27" points="123.73 106.25 122.44 105.17 108.94 120.53 123.73 106.25"/>
    <polygon class="cls-19" points="123.88 106.07 123.2 104.54 104.3 112.37 123.88 106.07"/>
    <polygon class="cls-22" points="124.3 101.68 123.02 102.76 109.51 87.39 124.3 101.68"/>
    <polygon class="cls-21" points="124.46 101.86 123.78 103.39 104.88 95.56 124.46 101.86"/>
    <line class="cls-23" x1="124" y1="100.96" x2="122.15" y2="102.81"/>
  </g>
</svg>